<svg width="34" height="31" viewBox="0 0 34 31" fill="none" xmlns="http://www.w3.org/2000/svg">
<path d="M24.3994 9.0007C25.3277 9.0007 26.2181 8.63191 26.8745 7.97547C27.531 7.31903 27.8997 6.4287 27.8997 5.50035C27.8997 4.572 27.531 3.68167 26.8745 3.02523C26.2181 2.36879 25.3277 2 24.3994 2C23.471 2 22.5807 2.36879 21.9243 3.02523C21.2678 3.68167 20.899 4.572 20.899 5.50035C20.899 6.4287 21.2678 7.31903 21.9243 7.97547C22.5807 8.63191 23.471 9.0007 24.3994 9.0007Z" stroke="white" stroke-width="3"/>
<path d="M7.59772 10.2398L13.2004 8.29926L20.899 11.9739L13.2004 17.7124L20.899 22.7809L16.0042 29.3014" stroke="white" stroke-width="3" stroke-linecap="round" stroke-linejoin="round"/>
<path d="M20.549 11.801L25.7995 14.6726L31.996 11.801" stroke="white" stroke-width="3" stroke-linecap="round" stroke-linejoin="round"/>
<path d="M13.1983 17.7516L8.91319 23.3221L2 27.2004" stroke="white" stroke-width="3" stroke-linecap="round" stroke-linejoin="round"/>
</svg>
