<svg width="32" height="32" viewBox="0 0 32 32" fill="none" xmlns="http://www.w3.org/2000/svg">
<path d="M22.4325 10.5946C23.436 10.5946 24.3984 10.1959 25.108 9.48635C25.8176 8.77675 26.2162 7.81433 26.2162 6.81081C26.2162 5.80729 25.8176 4.84486 25.108 4.13527C24.3984 3.42567 23.436 3.02702 22.4325 3.02702C21.4289 3.02702 20.4665 3.42567 19.7569 4.13527C19.0473 4.84486 18.6487 5.80729 18.6487 6.81081C18.6487 7.81433 19.0473 8.77675 19.7569 9.48635C20.4665 10.1959 21.4289 10.5946 22.4325 10.5946V10.5946Z" stroke="white" stroke-width="3" stroke-miterlimit="2"/>
<path d="M15.6216 28.7568L21.7589 27.1978C22.3492 27.0541 22.5308 26.2973 22.0767 25.8962L15.6216 20.4324L18.6486 14.3784L10.7708 11.5481C10.3924 11.4119 10.0897 11.1395 9.91566 10.7762L6.54053 4.54054" stroke="white" stroke-width="3" stroke-miterlimit="2" stroke-linecap="round" stroke-linejoin="round"/>
<path d="M15.6216 20.4324L10.347 27.0843C10.1881 27.2735 9.99135 27.4249 9.76432 27.5157L2 30.2703" stroke="white" stroke-width="3" stroke-miterlimit="2" stroke-linecap="round" stroke-linejoin="round"/>
<path d="M18.6487 14.3784L26.1406 16.4897C26.4963 16.5957 26.8065 16.8227 27.0033 17.133L30 21.9459" stroke="white" stroke-width="3" stroke-miterlimit="2" stroke-linecap="round" stroke-linejoin="round"/>
<path d="M11.8379 4.54054C12.44 4.54054 13.0175 4.30135 13.4432 3.87559C13.869 3.44984 14.1082 2.87238 14.1082 2.27027C14.1082 1.66816 13.869 1.09071 13.4432 0.664947C13.0175 0.239189 12.44 0 11.8379 0C11.2358 0 10.6583 0.239189 10.2326 0.664947C9.80682 1.09071 9.56763 1.66816 9.56763 2.27027C9.56763 2.87238 9.80682 3.44984 10.2326 3.87559C10.6583 4.30135 11.2358 4.54054 11.8379 4.54054Z" fill="white"/>
</svg>
