<svg width="49" height="34" viewBox="0 0 49 34" fill="none" xmlns="http://www.w3.org/2000/svg">
<path d="M24.5 22C30.3451 22 35.7279 21.079 39.7228 19.52C41.714 18.743 43.4615 17.7683 44.7452 16.5839C46.031 15.3976 47 13.8506 47 12C47 10.1494 46.031 8.60241 44.7452 7.41611C43.4615 6.2317 41.714 5.25704 39.7228 4.47999C35.7279 2.92102 30.3451 2 24.5 2C18.6549 2 13.2721 2.92102 9.27723 4.47999C7.28605 5.25704 5.5385 6.2317 4.25478 7.41611C2.96901 8.60241 2 10.1494 2 12C2 13.8506 2.96901 15.3976 4.25478 16.5839C5.5385 17.7683 7.28605 18.743 9.27723 19.52C13.2721 21.079 18.6549 22 24.5 22Z" stroke="#184E77" stroke-width="4"/>
<path d="M25 15.5C27.8294 15.5 30.4326 15.2716 32.3652 14.8851C33.3192 14.6943 34.1884 14.4499 34.8554 14.1345C35.185 13.9787 35.546 13.7683 35.8453 13.4758C36.1471 13.1808 36.5 12.6836 36.5 12C36.5 11.3164 36.1471 10.8192 35.8453 10.5242C35.546 10.2317 35.185 10.0213 34.8554 9.86547C34.1884 9.55012 33.3192 9.30571 32.3652 9.11492C30.4326 8.72838 27.8294 8.5 25 8.5C22.1706 8.5 19.5674 8.72838 17.6348 9.11492C16.6808 9.30571 15.8115 9.55012 15.1446 9.86547C14.815 10.0213 14.454 10.2317 14.1547 10.5242C13.8529 10.8192 13.5 11.3164 13.5 12C13.5 12.6836 13.8529 13.1808 14.1547 13.4758C14.454 13.7683 14.815 13.9787 15.1446 14.1345C15.8115 14.4499 16.6808 14.6943 17.6348 14.8851C19.5674 15.2716 22.1706 15.5 25 15.5Z" stroke="#184E77" stroke-width="3"/>
<line x1="1.5" y1="11.5" x2="1.5" y2="24.5" stroke="#184E77" stroke-width="3" stroke-linecap="round"/>
<line x1="14.5" y1="21.5" x2="14.5" y2="32.5" stroke="#184E77" stroke-width="3" stroke-linecap="round"/>
<line x1="32.5" y1="21.5" x2="32.5" y2="32.5" stroke="#184E77" stroke-width="3" stroke-linecap="round"/>
<line x1="47.5" y1="13.5" x2="47.5" y2="24.5" stroke="#184E77" stroke-width="3" stroke-linecap="round"/>
</svg>
