<svg width="30" height="41" viewBox="0 0 30 41" fill="none" xmlns="http://www.w3.org/2000/svg">
<path d="M11.7235 15.0823C12.761 15.0823 13.756 14.6702 14.4896 13.9366C15.2232 13.203 15.6353 12.208 15.6353 11.1706C15.6353 10.1331 15.2232 9.13815 14.4896 8.40455C13.756 7.67095 12.761 7.25882 11.7235 7.25882C10.6861 7.25882 9.6911 7.67095 8.9575 8.40455C8.2239 9.13815 7.81177 10.1331 7.81177 11.1706C7.81177 12.208 8.2239 13.203 8.9575 13.9366C9.6911 14.6702 10.6861 15.0823 11.7235 15.0823V15.0823Z" stroke="white" stroke-width="2.68235" stroke-miterlimit="2"/>
<path d="M23.0118 17.9882C23.486 17.9882 23.9409 17.7998 24.2763 17.4645C24.6116 17.1291 24.8 16.6743 24.8 16.2C24.8 15.7257 24.6116 15.2709 24.2763 14.9355C23.9409 14.6002 23.486 14.4118 23.0118 14.4118C22.5375 14.4118 22.0827 14.6002 21.7473 14.9355C21.4119 15.2709 21.2235 15.7257 21.2235 16.2C21.2235 16.6743 21.4119 17.1291 21.7473 17.4645C22.0827 17.7998 22.5375 17.9882 23.0118 17.9882Z" fill="white"/>
<path d="M11.1647 19.7765V27.0412L14.9647 32.7412L18.9882 39" stroke="white" stroke-width="2.68235" stroke-miterlimit="2" stroke-linecap="round" stroke-linejoin="round"/>
<path d="M11.1647 27.0412L8.25884 33.1882L5.12943 39" stroke="white" stroke-width="2.68235" stroke-miterlimit="2" stroke-linecap="round" stroke-linejoin="round"/>
<path d="M23.4588 21.5647L17.6471 22.4588C17.6471 22.4588 14.0706 20.4471 10.9412 19.3294L4.68235 22.9059L2 24.2471" stroke="white" stroke-width="2.68235" stroke-miterlimit="2" stroke-linecap="round" stroke-linejoin="round"/>
<path d="M22.876 2.54884C23.8366 1.89171 26.1239 1.11492 27.4712 2.54882C29.2563 4.44855 28.6971 6.47281 27.4712 7.51944C26.2454 8.56607 23.4209 8.69508 23.1771 9.55533C22.9821 10.2435 22.8951 11.6438 22.876 12.258" stroke="white" stroke-width="2.68235" stroke-linecap="round"/>
</svg>
