<svg width="39" height="39" viewBox="0 0 39 39" fill="none" xmlns="http://www.w3.org/2000/svg">
<path d="M7.25 26.5V8.125C7.25 6.50055 7.89531 4.94263 9.04397 3.79397C10.1926 2.64531 11.7505 2 13.375 2C14.9995 2 16.5574 2.64531 17.706 3.79397C18.8547 4.94263 19.5 6.50055 19.5 8.125V30.875C19.5 31.6793 19.6584 32.4758 19.9662 33.2189C20.274 33.9621 20.7252 34.6373 21.294 35.206C21.8627 35.7748 22.5379 36.226 23.2811 36.5338C24.0242 36.8416 24.8207 37 25.625 37C26.4293 37 27.2258 36.8416 27.9689 36.5338C28.7121 36.226 29.3873 35.7748 29.956 35.206C30.5248 34.6373 30.976 33.9621 31.2838 33.2189C31.5916 32.4758 31.75 31.6793 31.75 30.875V12.5" stroke="#184E77" stroke-width="4" stroke-linecap="round" stroke-linejoin="round"/>
<path d="M33.875 2.5V12H29.625V2.5H33.875Z" stroke="#184E77"/>
<path d="M34.375 12.5H29.125M26.5 12.5H29.125H26.5ZM37 12.5H34.375H37ZM34.375 12.5V2H29.125V12.5H34.375Z" stroke="#184E77" stroke-width="4" stroke-linecap="round" stroke-linejoin="round"/>
<path d="M5.125 36.5V27H9.375V36.5H5.125Z" stroke="#184E77"/>
<path d="M4.625 26.5H9.875M12.5 26.5H9.875H12.5ZM2 26.5H4.625H2ZM4.625 26.5V37H9.875V26.5H4.625Z" stroke="#184E77" stroke-width="4" stroke-linecap="round" stroke-linejoin="round"/>
</svg>
