<svg width="32" height="34" viewBox="0 0 32 34" fill="none" xmlns="http://www.w3.org/2000/svg">
<path d="M20.75 9.5C21.7446 9.5 22.6984 9.10491 23.4017 8.40165C24.1049 7.69839 24.5 6.74456 24.5 5.75C24.5 4.75544 24.1049 3.80161 23.4017 3.09835C22.6984 2.39509 21.7446 2 20.75 2C19.7554 2 18.8016 2.39509 18.0983 3.09835C17.3951 3.80161 17 4.75544 17 5.75C17 6.74456 17.3951 7.69839 18.0983 8.40165C18.8016 9.10491 19.7554 9.5 20.75 9.5V9.5Z" stroke="white" stroke-width="3" stroke-miterlimit="2"/>
<path d="M13.25 33.5C13.8467 33.5 14.419 33.2629 14.841 32.841C15.2629 32.419 15.5 31.8467 15.5 31.25C15.5 30.6533 15.2629 30.081 14.841 29.659C14.419 29.2371 13.8467 29 13.25 29C12.6533 29 12.081 29.2371 11.659 29.659C11.2371 30.081 11 30.6533 11 31.25C11 31.8467 11.2371 32.419 11.659 32.841C12.081 33.2629 12.6533 33.5 13.25 33.5Z" fill="white"/>
<path d="M17.285 13.1825L14 19.25L19.4825 23.765C19.715 23.945 19.88 24.1925 19.9775 24.47L22.25 32" stroke="white" stroke-width="3" stroke-miterlimit="2" stroke-linecap="round" stroke-linejoin="round"/>
<path d="M14 19.25L9.8825 24.98C9.4775 25.5725 8.7125 25.7975 8.0525 25.52L2 23" stroke="white" stroke-width="3" stroke-miterlimit="2" stroke-linecap="round" stroke-linejoin="round"/>
<path d="M30.5 17H25.25C24.98 17 24.71 16.9325 24.47 16.7975L22.0625 15.44C19.055 13.6775 15.7625 12.47 12.335 11.855L9.92 11.4275C9.5825 11.3675 9.23 11.4275 8.93 11.5925L4.25 14" stroke="white" stroke-width="3" stroke-miterlimit="2" stroke-linecap="round" stroke-linejoin="round"/>
</svg>
