<svg width="30" height="32" viewBox="0 0 30 32" fill="none" xmlns="http://www.w3.org/2000/svg">
<path d="M19.5 9C20.4283 9 21.3185 8.63125 21.9749 7.97487C22.6313 7.3185 23 6.42826 23 5.5C23 4.57174 22.6313 3.6815 21.9749 3.02513C21.3185 2.36875 20.4283 2 19.5 2C18.5717 2 17.6815 2.36875 17.0251 3.02513C16.3687 3.6815 16 4.57174 16 5.5C16 6.42826 16.3687 7.3185 17.0251 7.97487C17.6815 8.63125 18.5717 9 19.5 9V9Z" stroke="white" stroke-width="3" stroke-miterlimit="2"/>
<path d="M27.9 16C28.4569 16 28.9911 15.7788 29.3849 15.3849C29.7787 14.9911 30 14.457 30 13.9C30 13.343 29.7787 12.8089 29.3849 12.4151C28.9911 12.0213 28.4569 11.8 27.9 11.8C27.343 11.8 26.8089 12.0213 26.4151 12.4151C26.0212 12.8089 25.8 13.343 25.8 13.9C25.8 14.457 26.0212 14.9911 26.4151 15.3849C26.8089 15.7788 27.343 16 27.9 16Z" fill="white"/>
<path d="M10.4 16L8.811 23.882C8.77676 24.0952 8.69368 24.2975 8.56825 24.4733C8.44283 24.649 8.27846 24.7933 8.088 24.895C7.89754 24.9967 7.68614 25.0529 7.47034 25.0593C7.25453 25.0658 7.04017 25.0222 6.844 24.932L2 23" stroke="white" stroke-width="3" stroke-miterlimit="2" stroke-linecap="round" stroke-linejoin="round"/>
<path d="M25.8 20.2L15.832 12.549C15.293 12.15 14.551 12.192 14.054 12.64L10.666 15.741C10.5887 15.811 10.528 15.8974 10.4885 15.9939C10.4489 16.0904 10.4315 16.1945 10.4376 16.2986C10.4436 16.4027 10.4729 16.5042 10.5234 16.5954C10.5738 16.6867 10.6441 16.7655 10.729 16.826L17.4 21.705C17.904 22.076 18.107 22.741 17.883 23.329L15.384 30" stroke="white" stroke-width="3" stroke-miterlimit="2" stroke-linecap="round" stroke-linejoin="round"/>
</svg>
