<svg width="39" height="36" viewBox="0 0 39 36" fill="none" xmlns="http://www.w3.org/2000/svg">
<path d="M28.1362 10.1686C29.2194 10.1686 30.2582 9.73827 31.0242 8.97231C31.7901 8.20636 32.2204 7.16751 32.2204 6.08429C32.2204 5.00107 31.7901 3.96221 31.0242 3.19626C30.2582 2.43031 29.2194 2 28.1362 2C27.0529 2 26.0141 2.43031 25.2481 3.19626C24.4822 3.96221 24.0519 5.00107 24.0519 6.08429C24.0519 7.16751 24.4822 8.20636 25.2481 8.97231C26.0141 9.73827 27.0529 10.1686 28.1362 10.1686Z" stroke="#184E77" stroke-width="4"/>
<path d="M8.53157 11.6145L15.0689 9.35022L24.0519 13.6379L15.0689 20.3337L24.0519 26.2477L18.3404 33.8559" stroke="#184E77" stroke-width="4" stroke-linecap="round" stroke-linejoin="round"/>
<path d="M23.6434 13.4359L29.7699 16.7866L37 13.436" stroke="#184E77" stroke-width="4" stroke-linecap="round" stroke-linejoin="round"/>
<path d="M15.0664 20.3793L10.0665 26.879L2 31.4044" stroke="#184E77" stroke-width="4" stroke-linecap="round" stroke-linejoin="round"/>
</svg>
