<svg width="32" height="41" viewBox="0 0 32 41" fill="none" xmlns="http://www.w3.org/2000/svg">
<path d="M19.625 11.75C20.7853 11.75 21.8981 11.2891 22.7186 10.4686C23.5391 9.64812 24 8.53532 24 7.375C24 6.21468 23.5391 5.10188 22.7186 4.28141C21.8981 3.46094 20.7853 3 19.625 3C18.4647 3 17.3519 3.46094 16.5314 4.28141C15.7109 5.10188 15.25 6.21468 15.25 7.375C15.25 8.53532 15.7109 9.64812 16.5314 10.4686C17.3519 11.2891 18.4647 11.75 19.625 11.75V11.75Z" stroke="#184E77" stroke-width="4.09231" stroke-miterlimit="2"/>
<path d="M28.375 29.25C29.0712 29.25 29.7389 28.9734 30.2312 28.4812C30.7234 27.9889 31 27.3212 31 26.625C31 25.9288 30.7234 25.2611 30.2312 24.7688C29.7389 24.2766 29.0712 24 28.375 24C27.6788 24 27.0111 24.2766 26.5188 24.7688C26.0266 25.2611 25.75 25.9288 25.75 26.625C25.75 27.3212 26.0266 27.9889 26.5188 28.4812C27.0111 28.9734 27.6788 29.25 28.375 29.25Z" fill="#184E77"/>
<path d="M15.5825 16.0463L11.75 23.125L18.1667 29.25L18.7237 38.5834" stroke="#184E77" stroke-width="4.09231" stroke-miterlimit="2" stroke-linecap="round" stroke-linejoin="round"/>
<path d="M11.75 23.125L10 30.4167L3 33.9167" stroke="#184E77" stroke-width="4.09231" stroke-miterlimit="2" stroke-linecap="round" stroke-linejoin="round"/>
<path d="M29.25 20.2638L24 19.9167L21.0833 18.6801C17.5746 16.6238 14.5821 15.3842 10.5833 14.6667L7.66668 16.4167L3.58334 18.6801" stroke="#184E77" stroke-width="4.09231" stroke-miterlimit="2" stroke-linecap="round" stroke-linejoin="round"/>
</svg>
