<svg width="40" height="41" viewBox="0 0 40 41" fill="none" xmlns="http://www.w3.org/2000/svg">
<path d="M28.1478 13.4198C29.4189 13.4198 30.6379 12.9149 31.5368 12.016C32.4356 11.1172 32.9405 9.89815 32.9405 8.62702C32.9405 7.35589 32.4356 6.13683 31.5368 5.23801C30.6379 4.33918 29.4189 3.83423 28.1478 3.83423C26.8766 3.83423 25.6576 4.33918 24.7587 5.23801C23.8599 6.13683 23.355 7.35589 23.355 8.62702C23.355 9.89815 23.8599 11.1172 24.7587 12.016C25.6576 12.9149 26.8766 13.4198 28.1478 13.4198V13.4198Z" stroke="#184E77" stroke-width="3.8" stroke-miterlimit="2"/>
<path d="M19.5207 36.4252L27.2946 34.4506C28.0423 34.2685 28.2723 33.3099 27.6972 32.8019L19.5207 25.8811L23.3549 18.2126L13.3763 14.6276C12.8971 14.4551 12.5136 14.11 12.2932 13.6499L8.018 5.75134" stroke="#184E77" stroke-width="3.8" stroke-miterlimit="2" stroke-linecap="round" stroke-linejoin="round"/>
<path d="M19.5207 25.881L12.8396 34.3067C12.6383 34.5464 12.389 34.7381 12.1015 34.8531L2.26667 38.3422" stroke="#184E77" stroke-width="3.8" stroke-miterlimit="2" stroke-linecap="round" stroke-linejoin="round"/>
<path d="M23.355 18.2126L32.8447 20.887C33.2952 21.0212 33.6882 21.3088 33.9374 21.7018L37.7333 27.7982" stroke="#184E77" stroke-width="3.8" stroke-miterlimit="2" stroke-linecap="round" stroke-linejoin="round"/>
<path d="M14.7279 5.75135C15.4906 5.75135 16.222 5.44838 16.7613 4.90909C17.3006 4.36979 17.6036 3.63835 17.6036 2.87568C17.6036 2.113 17.3006 1.38156 16.7613 0.842266C16.222 0.302972 15.4906 0 14.7279 0C13.9652 0 13.2338 0.302972 12.6945 0.842266C12.1552 1.38156 11.8522 2.113 11.8522 2.87568C11.8522 3.63835 12.1552 4.36979 12.6945 4.90909C13.2338 5.44838 13.9652 5.75135 14.7279 5.75135Z" fill="#184E77"/>
</svg>
