<svg width="35" height="46" viewBox="0 0 35 46" fill="none" xmlns="http://www.w3.org/2000/svg">
<path d="M13.875 16.75C15.0353 16.75 16.1481 16.2891 16.9686 15.4686C17.7891 14.6481 18.25 13.5353 18.25 12.375C18.25 11.2147 17.7891 10.1019 16.9686 9.28141C16.1481 8.46094 15.0353 8 13.875 8C12.7147 8 11.6019 8.46094 10.7814 9.28141C9.96094 10.1019 9.5 11.2147 9.5 12.375C9.5 13.5353 9.96094 14.6481 10.7814 15.4686C11.6019 16.2891 12.7147 16.75 13.875 16.75V16.75Z" stroke="#184E77" stroke-width="4.09231" stroke-miterlimit="2"/>
<path d="M26.5 20C27.0304 20 27.5391 19.7893 27.9142 19.4142C28.2893 19.0391 28.5 18.5304 28.5 18C28.5 17.4696 28.2893 16.9609 27.9142 16.5858C27.5391 16.2107 27.0304 16 26.5 16C25.9696 16 25.4609 16.2107 25.0858 16.5858C24.7107 16.9609 24.5 17.4696 24.5 18C24.5 18.5304 24.7107 19.0391 25.0858 19.4142C25.4609 19.7893 25.9696 20 26.5 20Z" fill="#184E77"/>
<path d="M13.25 22V30.125L17.5 36.5L22 43.5" stroke="#184E77" stroke-width="4.09231" stroke-miterlimit="2" stroke-linecap="round" stroke-linejoin="round"/>
<path d="M13.25 30.125L10 37L6.5 43.5" stroke="#184E77" stroke-width="4.09231" stroke-miterlimit="2" stroke-linecap="round" stroke-linejoin="round"/>
<path d="M27 24L20.5 25C20.5 25 16.5 22.75 13 21.5L6 25.5L3 27" stroke="#184E77" stroke-width="4.09231" stroke-miterlimit="2" stroke-linecap="round" stroke-linejoin="round"/>
<path d="M26.3482 2.73225C27.4225 1.99731 29.9807 1.12853 31.4876 2.73223C33.484 4.85693 32.8586 7.12091 31.4876 8.29148C30.1165 9.46205 26.9575 9.60633 26.6849 10.5685C26.4668 11.3382 26.3695 12.9043 26.3482 13.5911" stroke="#184E77" stroke-width="3" stroke-linecap="round"/>
</svg>
