<svg width="39" height="41" viewBox="0 0 39 41" fill="none" xmlns="http://www.w3.org/2000/svg">
<path d="M25.0263 11.2105C26.2477 11.2105 27.4191 10.7253 28.2827 9.86168C29.1464 8.99802 29.6316 7.82665 29.6316 6.60526C29.6316 5.38387 29.1464 4.2125 28.2827 3.34885C27.4191 2.4852 26.2477 2 25.0263 2C23.8049 2 22.6336 2.4852 21.7699 3.34885C20.9062 4.2125 20.4211 5.38387 20.4211 6.60526C20.4211 7.82665 20.9062 8.99802 21.7699 9.86168C22.6336 10.7253 23.8049 11.2105 25.0263 11.2105V11.2105Z" stroke="#184E77" stroke-width="4" stroke-miterlimit="2"/>
<path d="M15.8158 40.6842C16.5486 40.6842 17.2514 40.393 17.7696 39.8748C18.2878 39.3566 18.5789 38.6538 18.5789 37.921C18.5789 37.1882 18.2878 36.4853 17.7696 35.9671C17.2514 35.449 16.5486 35.1578 15.8158 35.1578C15.083 35.1578 14.3801 35.449 13.8619 35.9671C13.3437 36.4853 13.0526 37.1882 13.0526 37.921C13.0526 38.6538 13.3437 39.3566 13.8619 39.8748C14.3801 40.393 15.083 40.6842 15.8158 40.6842Z" fill="#184E77"/>
<path d="M20.771 15.7329L16.7368 23.1842L23.4697 28.729C23.7553 28.95 23.9579 29.254 24.0776 29.5948L26.8684 38.8421" stroke="#184E77" stroke-width="4" stroke-miterlimit="2" stroke-linecap="round" stroke-linejoin="round"/>
<path d="M16.7368 23.1842L11.6803 30.221C11.1829 30.9487 10.2434 31.225 9.43289 30.8842L2 27.7895" stroke="#184E77" stroke-width="4" stroke-miterlimit="2" stroke-linecap="round" stroke-linejoin="round"/>
<path d="M37 20.421H30.5526C30.2211 20.421 29.8895 20.3381 29.5947 20.1723L26.6382 18.5052C22.9447 16.3408 18.9013 14.8579 14.6921 14.1026L11.7263 13.5776C11.3118 13.5039 10.8789 13.5776 10.5105 13.7802L4.76316 16.7368" stroke="#184E77" stroke-width="4" stroke-miterlimit="2" stroke-linecap="round" stroke-linejoin="round"/>
</svg>
