<svg width="37" height="39" viewBox="0 0 37 39" fill="none" xmlns="http://www.w3.org/2000/svg">
<path d="M23.875 10.75C25.0353 10.75 26.1481 10.2891 26.9686 9.46859C27.7891 8.64812 28.25 7.53532 28.25 6.375C28.25 5.21468 27.7891 4.10188 26.9686 3.28141C26.1481 2.46094 25.0353 2 23.875 2C22.7147 2 21.6019 2.46094 20.7814 3.28141C19.9609 4.10188 19.5 5.21468 19.5 6.375C19.5 7.53532 19.9609 8.64812 20.7814 9.46859C21.6019 10.2891 22.7147 10.75 23.875 10.75V10.75Z" stroke="#184E77" stroke-width="3.8" stroke-miterlimit="2"/>
<path d="M34.375 19.5C35.0712 19.5 35.7389 19.2234 36.2312 18.7312C36.7234 18.2389 37 17.5712 37 16.875C37 16.1788 36.7234 15.5111 36.2312 15.0188C35.7389 14.5266 35.0712 14.25 34.375 14.25C33.6788 14.25 33.0111 14.5266 32.5188 15.0188C32.0266 15.5111 31.75 16.1788 31.75 16.875C31.75 17.5712 32.0266 18.2389 32.5188 18.7312C33.0111 19.2234 33.6788 19.5 34.375 19.5Z" fill="#184E77"/>
<path d="M12.5 19.5L10.5137 29.3525C10.4709 29.619 10.3671 29.8719 10.2103 30.0916C10.0535 30.3112 9.84808 30.4917 9.61 30.6188C9.37192 30.7458 9.10768 30.8161 8.83792 30.8242C8.56817 30.8322 8.30021 30.7777 8.055 30.665L2 28.25" stroke="#184E77" stroke-width="3.8" stroke-miterlimit="2" stroke-linecap="round" stroke-linejoin="round"/>
<path d="M31.75 24.75L19.29 15.1862C18.6162 14.6875 17.6887 14.74 17.0675 15.3L12.8325 19.1762C12.7358 19.2637 12.6599 19.3717 12.6105 19.4923C12.5611 19.6129 12.5393 19.7431 12.5469 19.8732C12.5545 20.0034 12.5911 20.1301 12.6542 20.2442C12.7172 20.3583 12.8051 20.4568 12.9112 20.5325L21.25 26.6312C21.88 27.095 22.1337 27.9262 21.8537 28.6612L18.73 37" stroke="#184E77" stroke-width="3.8" stroke-miterlimit="2" stroke-linecap="round" stroke-linejoin="round"/>
</svg>
