<svg width="35" height="35" viewBox="0 0 35 35" fill="none" xmlns="http://www.w3.org/2000/svg">
<path d="M8.75 5.25L1.75 8.75V1.75L8.75 5.25ZM28 1.75V8.75L35 5.25L28 1.75ZM15.75 0V7L22.75 3.5L15.75 0ZM5.25 14.07C7.665 14.9275 11.8475 15.75 17.5 15.75C23.1525 15.75 27.335 14.9275 29.75 14.07C29.75 13.755 24.885 12.25 17.5 12.25C10.115 12.25 5.25 13.755 5.25 14.07ZM22.75 26.25H12.25V34.79C5.145 34.1075 0 32.095 0 29.75V14C0 11.095 7.84 8.75 17.5 8.75C27.16 8.75 35 11.095 35 14V29.75C35 32.095 29.855 34.09 22.75 34.7725V26.25Z" fill="#184E77"/>
</svg>
