<svg width="36" height="36" viewBox="0 0 36 36" fill="none" xmlns="http://www.w3.org/2000/svg">
<path d="M16.3425 0.187505C15.7852 0.18752 15.2438 0.37376 14.8045 0.716643C14.3651 1.05953 14.0529 1.53939 13.9175 2.08L10.3275 16.4375H18.9375C19.269 16.4375 19.587 16.5692 19.8214 16.8036C20.0558 17.038 20.1875 17.356 20.1875 17.6875C20.1875 18.019 20.0558 18.337 19.8214 18.5714C19.587 18.8058 19.269 18.9375 18.9375 18.9375H9.7025L8.4525 23.9375H20.8125C21.144 23.9375 21.462 24.0692 21.6964 24.3036C21.9308 24.538 22.0625 24.856 22.0625 25.1875C22.0625 25.519 21.9308 25.837 21.6964 26.0714C21.462 26.3058 21.144 26.4375 20.8125 26.4375H7.8275L6.2625 32.6875H1.4375C1.10598 32.6875 0.788037 32.8192 0.553616 33.0536C0.319196 33.288 0.1875 33.606 0.1875 33.9375C0.1875 34.269 0.319196 34.587 0.553616 34.8214C0.788037 35.0558 1.10598 35.1875 1.4375 35.1875H33.9375C34.269 35.1875 34.587 35.0558 34.8214 34.8214C35.0558 34.587 35.1875 34.269 35.1875 33.9375C35.1875 33.606 35.0558 33.288 34.8214 33.0536C34.587 32.8192 34.269 32.6875 33.9375 32.6875H29.11L21.46 2.08C21.3244 1.53856 21.0114 1.05807 20.571 0.715103C20.1307 0.372132 19.5882 0.186403 19.03 0.187505H16.3425Z" fill="#184E77"/>
</svg>
