<svg width="19" height="31" viewBox="0 0 19 31" fill="none" xmlns="http://www.w3.org/2000/svg">
<path d="M18.125 9.0625C18.125 6.65898 17.1702 4.35389 15.4707 2.65434C13.7711 0.954796 11.466 0 9.0625 0C6.65898 0 4.35389 0.954796 2.65434 2.65434C0.954796 4.35389 0 6.65898 0 9.0625C0 9.54321 0.19096 10.0042 0.530869 10.3441C0.870779 10.684 1.3318 10.875 1.8125 10.875C2.29321 10.875 2.75422 10.684 3.09413 10.3441C3.43404 10.0042 3.625 9.54321 3.625 9.0625C3.625 7.98706 3.9439 6.93578 4.54138 6.04159C5.13886 5.14739 5.98809 4.45046 6.98166 4.03891C7.97523 3.62735 9.06853 3.51967 10.1233 3.72948C11.1781 3.93929 12.1469 4.45716 12.9074 5.21761C13.6678 5.97806 14.1857 6.94692 14.3955 8.0017C14.6053 9.05647 14.4976 10.1498 14.0861 11.1433C13.6745 12.1369 12.9776 12.9861 12.0834 13.5836C11.1892 14.1811 10.1379 14.5 9.0625 14.5C8.58179 14.5 8.12078 14.691 7.78087 15.0309C7.44096 15.3708 7.25 15.8318 7.25 16.3125V19.9375C7.25 20.4182 7.44096 20.8792 7.78087 21.2191C8.12078 21.559 8.58179 21.75 9.0625 21.75C9.54321 21.75 10.0042 21.559 10.3441 21.2191C10.684 20.8792 10.875 20.4182 10.875 19.9375V17.9437C12.922 17.5259 14.7617 16.4137 16.0829 14.7953C17.404 13.1769 18.1254 11.1517 18.125 9.0625Z" fill="#184E77"/>
<path d="M8.875 30.75C10.4628 30.75 11.75 29.4628 11.75 27.875C11.75 26.2872 10.4628 25 8.875 25C7.28718 25 6 26.2872 6 27.875C6 29.4628 7.28718 30.75 8.875 30.75Z" fill="#184E77"/>
</svg>
