<svg width="16" height="10" viewBox="0 0 16 10" fill="none" xmlns="http://www.w3.org/2000/svg">
<path d="M2.97067 0.231953C2.8946 0.159135 2.8049 0.102055 2.70672 0.0639869C2.51199 -0.0160112 2.29357 -0.0160112 2.09884 0.0639869C2.00066 0.102055 1.91097 0.159135 1.8349 0.231953L0.235225 1.83163C0.084613 1.98224 0 2.18651 0 2.39951C0 2.61251 0.084613 2.81678 0.235225 2.96739C0.385837 3.11801 0.590111 3.20262 0.803109 3.20262C1.01611 3.20262 1.22038 3.11801 1.37099 2.96739L1.60295 2.72744V8.7982C1.60295 9.01033 1.68721 9.21377 1.83721 9.36377C1.98721 9.51377 2.19065 9.59804 2.40278 9.59804C2.61491 9.59804 2.81835 9.51377 2.96835 9.36377C3.11835 9.21377 3.20262 9.01033 3.20262 8.7982V2.72744L3.43457 2.96739C3.50893 3.04236 3.59739 3.10186 3.69486 3.14247C3.79232 3.18308 3.89687 3.20398 4.00245 3.20398C4.10804 3.20398 4.21259 3.18308 4.31005 3.14247C4.40752 3.10186 4.49598 3.04236 4.57034 2.96739C4.64531 2.89304 4.70481 2.80458 4.74542 2.70711C4.78602 2.60964 4.80693 2.5051 4.80693 2.39951C4.80693 2.29392 4.78602 2.18938 4.74542 2.09191C4.70481 1.99444 4.64531 1.90598 4.57034 1.83163L2.97067 0.231953ZM7.2018 1.59967H15.2002C15.4123 1.59967 15.6157 1.5154 15.7657 1.36541C15.9157 1.21541 16 1.01197 16 0.799836C16 0.587707 15.9157 0.384265 15.7657 0.234267C15.6157 0.0842684 15.4123 0 15.2002 0H7.2018C6.98967 0 6.78623 0.0842684 6.63623 0.234267C6.48623 0.384265 6.40196 0.587707 6.40196 0.799836C6.40196 1.01197 6.48623 1.21541 6.63623 1.36541C6.78623 1.5154 6.98967 1.59967 7.2018 1.59967V1.59967ZM15.2002 7.99836H7.2018C6.98967 7.99836 6.78623 8.08263 6.63623 8.23263C6.48623 8.38263 6.40196 8.58607 6.40196 8.7982C6.40196 9.01033 6.48623 9.21377 6.63623 9.36377C6.78623 9.51377 6.98967 9.59804 7.2018 9.59804H15.2002C15.4123 9.59804 15.6157 9.51377 15.7657 9.36377C15.9157 9.21377 16 9.01033 16 8.7982C16 8.58607 15.9157 8.38263 15.7657 8.23263C15.6157 8.08263 15.4123 7.99836 15.2002 7.99836ZM15.2002 3.99918H7.2018C6.98967 3.99918 6.78623 4.08345 6.63623 4.23345C6.48623 4.38345 6.40196 4.58689 6.40196 4.79902C6.40196 5.01115 6.48623 5.21459 6.63623 5.36459C6.78623 5.51459 6.98967 5.59885 7.2018 5.59885H15.2002C15.4123 5.59885 15.6157 5.51459 15.7657 5.36459C15.9157 5.21459 16 5.01115 16 4.79902C16 4.58689 15.9157 4.38345 15.7657 4.23345C15.6157 4.08345 15.4123 3.99918 15.2002 3.99918Z" fill="#184E77"/>
</svg>
