<svg width="17" height="14" viewBox="0 0 17 14" fill="none" xmlns="http://www.w3.org/2000/svg">
<path d="M11.6667 13V11.6667C11.6667 10.9594 11.3857 10.2811 10.8856 9.78105C10.3855 9.28095 9.70724 9 9 9H3.66667C2.95942 9 2.28115 9.28095 1.78105 9.78105C1.28095 10.2811 1 10.9594 1 11.6667V13" stroke="#184E77" stroke-width="1.33333" stroke-linecap="round" stroke-linejoin="round"/>
<path d="M6.33335 6.33333C7.80611 6.33333 9.00002 5.13943 9.00002 3.66667C9.00002 2.19391 7.80611 1 6.33335 1C4.86059 1 3.66669 2.19391 3.66669 3.66667C3.66669 5.13943 4.86059 6.33333 6.33335 6.33333Z" stroke="#184E77" stroke-width="1.33333" stroke-linecap="round" stroke-linejoin="round"/>
<path d="M15.6667 13V11.6667C15.6662 11.0758 15.4696 10.5018 15.1076 10.0349C14.7456 9.5679 14.2388 9.23437 13.6667 9.08666" stroke="#184E77" stroke-width="1.33333" stroke-linecap="round" stroke-linejoin="round"/>
<path d="M11 1.08666C11.5736 1.23353 12.082 1.56713 12.4451 2.03487C12.8082 2.50261 13.0052 3.07788 13.0052 3.67C13.0052 4.26211 12.8082 4.83738 12.4451 5.30512C12.082 5.77286 11.5736 6.10646 11 6.25333" stroke="#184E77" stroke-width="1.33333" stroke-linecap="round" stroke-linejoin="round"/>
</svg>
