<svg width="25" height="25" viewBox="0 0 25 25" fill="none" xmlns="http://www.w3.org/2000/svg">
<path d="M20 10.625H11.875V9.375H24.375V12.0227L16.0855 14.2845L15.625 14.4102V14.8875V16.875C15.625 18.3584 15.1851 19.8084 14.361 21.0418C13.5369 22.2751 12.3656 23.2364 10.9951 23.8041C9.62468 24.3717 8.11668 24.5203 6.66183 24.2309C5.20697 23.9415 3.8706 23.2272 2.8217 22.1783C1.77281 21.1294 1.0585 19.793 0.769114 18.3382C0.479725 16.8833 0.62825 15.3753 1.19591 14.0049C1.76356 12.6344 2.72486 11.4631 3.95823 10.639C5.1916 9.81487 6.64164 9.375 8.125 9.375V10.625C6.88887 10.625 5.6805 10.9916 4.65269 11.6783C3.62488 12.3651 2.8238 13.3412 2.35076 14.4832C1.87771 15.6253 1.75394 16.8819 1.9951 18.0943C2.23625 19.3067 2.83151 20.4203 3.70559 21.2944C4.57966 22.1685 5.69331 22.7637 6.90569 23.0049C8.11807 23.2461 9.37474 23.1223 10.5168 22.6492C11.6588 22.1762 12.6349 21.3751 13.3217 20.3473C14.0084 19.3195 14.375 18.1111 14.375 16.875V13.8597L20.1707 12.2137L20.625 12.0847V11.6125V11.25V10.625H20ZM3.23107 6.70744L1.05001 3.73587L2.06116 2.99936L4.40761 6.24271C4.00687 6.37471 3.61403 6.52987 3.23107 6.70744ZM18.9525 3.73769L17.5815 5.625H16.0369L17.9386 2.99917L18.9525 3.73769ZM10.625 5.625H9.375V0.625H10.625V5.625Z" fill="#7D7C84" stroke="#7D7C84" stroke-width="1.25"/>
</svg>
