<svg width="31" height="18" viewBox="0 0 31 18" fill="none" xmlns="http://www.w3.org/2000/svg">
<path d="M5.57114 0.435C5.42848 0.298439 5.26026 0.191391 5.07614 0.12C4.71095 -0.0300271 4.30133 -0.0300271 3.93614 0.12C3.75201 0.191391 3.58379 0.298439 3.44114 0.435L0.441137 3.435C0.158682 3.71746 0 4.10055 0 4.5C0 4.89945 0.158682 5.28254 0.441137 5.565C0.723593 5.84746 1.10668 6.00614 1.50614 6.00614C1.90559 6.00614 2.28868 5.84746 2.57114 5.565L3.00614 5.115V16.5C3.00614 16.8978 3.16417 17.2794 3.44548 17.5607C3.72678 17.842 4.10831 18 4.50614 18C4.90396 18 5.28549 17.842 5.5668 17.5607C5.8481 17.2794 6.00614 16.8978 6.00614 16.5V5.115L6.44114 5.565C6.58058 5.70559 6.74648 5.81718 6.92927 5.89334C7.11206 5.96949 7.30812 6.0087 7.50614 6.0087C7.70416 6.0087 7.90021 5.96949 8.083 5.89334C8.26579 5.81718 8.43169 5.70559 8.57114 5.565C8.71173 5.42556 8.82332 5.25965 8.89947 5.07687C8.97563 4.89408 9.01484 4.69802 9.01484 4.5C9.01484 4.30198 8.97563 4.10592 8.89947 3.92313C8.82332 3.74035 8.71173 3.57444 8.57114 3.435L5.57114 0.435ZM13.5061 3H28.5061C28.904 3 29.2855 2.84196 29.5668 2.56066C29.8481 2.27936 30.0061 1.89782 30.0061 1.5C30.0061 1.10218 29.8481 0.720645 29.5668 0.43934C29.2855 0.158036 28.904 0 28.5061 0H13.5061C13.1083 0 12.7268 0.158036 12.4455 0.43934C12.1642 0.720645 12.0061 1.10218 12.0061 1.5C12.0061 1.89782 12.1642 2.27936 12.4455 2.56066C12.7268 2.84196 13.1083 3 13.5061 3V3ZM28.5061 15H13.5061C13.1083 15 12.7268 15.158 12.4455 15.4393C12.1642 15.7206 12.0061 16.1022 12.0061 16.5C12.0061 16.8978 12.1642 17.2794 12.4455 17.5607C12.7268 17.842 13.1083 18 13.5061 18H28.5061C28.904 18 29.2855 17.842 29.5668 17.5607C29.8481 17.2794 30.0061 16.8978 30.0061 16.5C30.0061 16.1022 29.8481 15.7206 29.5668 15.4393C29.2855 15.158 28.904 15 28.5061 15ZM28.5061 7.5H13.5061C13.1083 7.5 12.7268 7.65804 12.4455 7.93934C12.1642 8.22064 12.0061 8.60218 12.0061 9C12.0061 9.39782 12.1642 9.77936 12.4455 10.0607C12.7268 10.342 13.1083 10.5 13.5061 10.5H28.5061C28.904 10.5 29.2855 10.342 29.5668 10.0607C29.8481 9.77936 30.0061 9.39782 30.0061 9C30.0061 8.60218 29.8481 8.22064 29.5668 7.93934C29.2855 7.65804 28.904 7.5 28.5061 7.5Z" fill="#7D7C84"/>
</svg>
