<svg width="22" height="23" viewBox="0 0 22 23" fill="none" xmlns="http://www.w3.org/2000/svg">
<path d="M9.87776 8.05H12.0728V5.75H9.87776V8.05ZM10.9753 20.7C6.13518 20.7 2.19506 16.5715 2.19506 11.5C2.19506 6.4285 6.13518 2.3 10.9753 2.3C15.8154 2.3 19.7555 6.4285 19.7555 11.5C19.7555 16.5715 15.8154 20.7 10.9753 20.7ZM10.9753 0C9.53399 0 8.10681 0.297456 6.77523 0.875385C5.44364 1.45331 4.23374 2.3004 3.21459 3.36827C1.15632 5.52494 0 8.45001 0 11.5C0 14.55 1.15632 17.4751 3.21459 19.6317C4.23374 20.6996 5.44364 21.5467 6.77523 22.1246C8.10681 22.7025 9.53399 23 10.9753 23C13.8861 23 16.6777 21.7884 18.736 19.6317C20.7943 17.4751 21.9506 14.55 21.9506 11.5C21.9506 9.9898 21.6667 8.49438 21.1151 7.09914C20.5636 5.7039 19.7551 4.43615 18.736 3.36827C17.7168 2.3004 16.5069 1.45331 15.1753 0.875385C13.8438 0.297456 12.4166 0 10.9753 0ZM9.87776 17.25H12.0728V10.35H9.87776V17.25Z" fill="#7D7C84"/>
</svg>
