<svg width="27" height="27" viewBox="0 0 27 27" fill="none" xmlns="http://www.w3.org/2000/svg">
<path d="M12.4356 2.72794C12.8036 1.75735 14.1962 1.75735 14.5654 2.72794L16.9458 9.32194C17.0289 9.53674 17.1751 9.72131 17.3652 9.85127C17.5553 9.98124 17.7804 10.0505 18.0107 10.0499H23.8607C24.9417 10.0499 25.4131 11.3954 24.5633 12.0543L20.4004 15.7998C20.2139 15.9431 20.0776 16.1419 20.0111 16.3675C19.9446 16.5931 19.9512 16.834 20.0301 17.0556L21.5504 23.4989C21.9206 24.5339 20.7224 25.4228 19.8162 24.7858L14.1617 21.1978C13.9681 21.0617 13.7372 20.9887 13.5005 20.9887C13.2638 20.9887 13.0329 21.0617 12.8392 21.1978L7.18477 24.7858C6.27974 25.4228 5.0803 24.5328 5.4506 23.4989L6.97088 17.0556C7.04974 16.834 7.05638 16.5931 6.98986 16.3675C6.92333 16.1419 6.78706 15.9431 6.60058 15.7998L2.43764 12.0543C1.58666 11.3954 2.06045 10.0499 3.13913 10.0499H8.98909C9.21943 10.0506 9.44456 9.98146 9.63471 9.85147C9.82487 9.72149 9.97107 9.53683 10.054 9.32194L12.4344 2.72794H12.4356Z" fill="white" stroke="white" stroke-width="3" stroke-linecap="round" stroke-linejoin="round"/>
</svg>
