<svg width="28" height="24" viewBox="0 0 28 24" fill="none" xmlns="http://www.w3.org/2000/svg">
<path d="M19.7778 22V19.7778C19.7778 18.599 19.3095 17.4686 18.476 16.6351C17.6425 15.8016 16.5121 15.3333 15.3333 15.3333H6.44444C5.2657 15.3333 4.13524 15.8016 3.30175 16.6351C2.46825 17.4686 2 18.599 2 19.7778V22" stroke="#7D7C84" stroke-width="2.7" stroke-linecap="round" stroke-linejoin="round"/>
<path d="M10.8889 10.8889C13.3435 10.8889 15.3333 8.89904 15.3333 6.44444C15.3333 3.98985 13.3435 2 10.8889 2C8.4343 2 6.44446 3.98985 6.44446 6.44444C6.44446 8.89904 8.4343 10.8889 10.8889 10.8889Z" stroke="#7D7C84" stroke-width="2.7" stroke-linecap="round" stroke-linejoin="round"/>
<path d="M26.4444 22V19.7778C26.4437 18.793 26.1159 17.8364 25.5126 17.0581C24.9093 16.2798 24.0646 15.724 23.1111 15.4778" stroke="#7D7C84" stroke-width="2.7" stroke-linecap="round" stroke-linejoin="round"/>
<path d="M18.6666 2.14444C19.6226 2.38922 20.47 2.94522 21.0751 3.72478C21.6802 4.50435 22.0087 5.46314 22.0087 6.44999C22.0087 7.43685 21.6802 8.39564 21.0751 9.17521C20.47 9.95477 19.6226 10.5108 18.6666 10.7556" stroke="#7D7C84" stroke-width="2.7" stroke-linecap="round" stroke-linejoin="round"/>
</svg>
