<svg width="27" height="27" viewBox="0 0 27 27" fill="none" xmlns="http://www.w3.org/2000/svg">
<path d="M13.3365 0.936263L13.5 0.926483C13.8422 0.926528 14.1725 1.05216 14.4282 1.27954C14.6839 1.50693 14.8472 1.82025 14.8873 2.16009L14.8971 2.32354V12.103H24.6765C25.0187 12.103 25.3489 12.2286 25.6046 12.456C25.8603 12.6834 26.0237 12.9967 26.0637 13.3366L26.0735 13.5C26.0735 13.8422 25.9479 14.1725 25.7205 14.4282C25.4931 14.6839 25.1798 14.8473 24.8399 14.8873L24.6765 14.8971H14.8971V24.6765C14.897 25.0187 14.7714 25.3489 14.544 25.6047C14.3166 25.8604 14.0033 26.0237 13.6635 26.0638L13.5 26.0735C13.1578 26.0735 12.8275 25.9479 12.5718 25.7205C12.3161 25.4931 12.1528 25.1798 12.1127 24.8399L12.1029 24.6765V14.8971H2.32353C1.98134 14.897 1.65107 14.7714 1.39536 14.544C1.13965 14.3166 0.976283 14.0033 0.936247 13.6635L0.926468 13.5C0.926513 13.1578 1.05214 12.8276 1.27953 12.5718C1.50691 12.3161 1.82023 12.1528 2.16007 12.1127L2.32353 12.103H12.1029V2.32354C12.103 1.98136 12.2286 1.65109 12.456 1.39538C12.6834 1.13966 12.9967 0.976298 13.3365 0.936263L13.5 0.926483L13.3365 0.936263Z" fill="white"/>
<path d="M13.3365 0.936263L13.5 0.926483C13.8422 0.926528 14.1725 1.05216 14.4282 1.27954C14.6839 1.50693 14.8472 1.82025 14.8873 2.16009L14.8971 2.32354V12.103H24.6765C25.0187 12.103 25.3489 12.2286 25.6046 12.456C25.8603 12.6834 26.0237 12.9967 26.0637 13.3366L26.0735 13.5C26.0735 13.8422 25.9479 14.1725 25.7205 14.4282C25.4931 14.6839 25.1798 14.8473 24.8399 14.8873L24.6765 14.8971H14.8971V24.6765C14.897 25.0187 14.7714 25.3489 14.544 25.6046C14.3166 25.8604 14.0033 26.0237 13.6635 26.0638L13.5 26.0735C13.1578 26.0735 12.8275 25.9479 12.5718 25.7205C12.3161 25.4931 12.1528 25.1798 12.1127 24.8399L12.1029 24.6765V14.8971H2.32353C1.98134 14.897 1.65107 14.7714 1.39536 14.544C1.13965 14.3166 0.976283 14.0033 0.936247 13.6635L0.926468 13.5C0.926513 13.1578 1.05214 12.8276 1.27953 12.5718C1.50691 12.3161 1.82023 12.1528 2.16007 12.1127L2.32353 12.103H12.1029V2.32354C12.103 1.98136 12.2286 1.65109 12.456 1.39538C12.6834 1.13966 12.9967 0.976298 13.3365 0.936263L13.5 0.926483L13.3365 0.936263Z" stroke="white"/>
</svg>
