<svg width="20" height="23" viewBox="0 0 20 23" fill="none" xmlns="http://www.w3.org/2000/svg">
<path d="M0 20.3258C0 21.4867 0.941823 22.4285 2.10267 22.4285H17.5223C18.6831 22.4285 19.625 21.4867 19.625 20.3258V8.4107H0V20.3258ZM2.80356 11.9152C2.80356 11.5297 3.11897 11.2143 3.50446 11.2143H7.7098C8.09529 11.2143 8.41069 11.5297 8.41069 11.9152V16.1205C8.41069 16.506 8.09529 16.8214 7.7098 16.8214H3.50446C3.11897 16.8214 2.80356 16.506 2.80356 16.1205V11.9152ZM17.5223 2.80357H15.4196V0.700891C15.4196 0.315401 15.1042 0 14.7187 0H13.3169C12.9314 0 12.616 0.315401 12.616 0.700891V2.80357H7.00891V0.700891C7.00891 0.315401 6.69351 0 6.30802 0H4.90624C4.52075 0 4.20535 0.315401 4.20535 0.700891V2.80357H2.10267C0.941823 2.80357 0 3.74539 0 4.90624V7.00891H19.625V4.90624C19.625 3.74539 18.6831 2.80357 17.5223 2.80357Z" fill="#184E77"/>
</svg>
