<svg width="13" height="13" viewBox="0 0 13 13" fill="none" xmlns="http://www.w3.org/2000/svg">
<path d="M8.56282 5.79289C8.1723 6.18342 8.1723 6.81658 8.56282 7.20711L12.7192 11.3635C12.899 11.5433 13 11.7871 13 12.0414C13 12.5708 12.5708 13 12.0414 13C11.7871 13 11.5433 12.899 11.3635 12.7192L7.20711 8.56282C6.81658 8.1723 6.18342 8.1723 5.79289 8.56282L1.63649 12.7192C1.45671 12.899 1.21288 13 0.958635 13C0.429196 13 0 12.5708 0 12.0414C0 11.7871 0.100999 11.5433 0.280777 11.3635L4.43718 7.20711C4.8277 6.81658 4.8277 6.18342 4.43718 5.79289L0.280778 1.63649C0.100999 1.45671 0 1.21288 0 0.958635C0 0.429195 0.429195 0 0.958635 0C1.21288 0 1.45671 0.100999 1.63649 0.280778L5.79289 4.43718C6.18342 4.8277 6.81658 4.8277 7.20711 4.43718L11.3635 0.280777C11.5433 0.100999 11.7871 0 12.0414 0C12.5708 0 13 0.429196 13 0.958635C13 1.21288 12.899 1.45671 12.7192 1.63649L8.56282 5.79289Z" fill="white"/>
</svg>
