<svg width="30" height="17" viewBox="0 0 30 17" fill="none" xmlns="http://www.w3.org/2000/svg">
<path d="M-3.8147e-06 15.7857C-3.8147e-06 15.4637 0.127928 15.1548 0.35565 14.9271C0.583374 14.6994 0.892233 14.5714 1.21428 14.5714H8.5C8.82204 14.5714 9.1309 14.6994 9.35863 14.9271C9.58635 15.1548 9.71428 15.4637 9.71428 15.7857C9.71428 16.1078 9.58635 16.4166 9.35863 16.6443C9.1309 16.8721 8.82204 17 8.5 17H1.21428C0.892233 17 0.583374 16.8721 0.35565 16.6443C0.127928 16.4166 -3.8147e-06 16.1078 -3.8147e-06 15.7857ZM-3.8147e-06 8.5C-3.8147e-06 8.17795 0.127928 7.86909 0.35565 7.64137C0.583374 7.41365 0.892233 7.28571 1.21428 7.28571H18.2143C18.5363 7.28571 18.8452 7.41365 19.0729 7.64137C19.3006 7.86909 19.4286 8.17795 19.4286 8.5C19.4286 8.82205 19.3006 9.13091 19.0729 9.35863C18.8452 9.58635 18.5363 9.71429 18.2143 9.71429H1.21428C0.892233 9.71429 0.583374 9.58635 0.35565 9.35863C0.127928 9.13091 -3.8147e-06 8.82205 -3.8147e-06 8.5ZM-3.8147e-06 1.21429C-3.8147e-06 0.892237 0.127928 0.583379 0.35565 0.355656C0.583374 0.127934 0.892233 0 1.21428 0H27.9286C28.2506 0 28.5595 0.127934 28.7872 0.355656C29.0149 0.583379 29.1429 0.892237 29.1429 1.21429C29.1429 1.53633 29.0149 1.84519 28.7872 2.07292C28.5595 2.30064 28.2506 2.42857 27.9286 2.42857H1.21428C0.892233 2.42857 0.583374 2.30064 0.35565 2.07292C0.127928 1.84519 -3.8147e-06 1.53633 -3.8147e-06 1.21429Z" fill="#184E77"/>
</svg>
