<svg width="45" height="33" viewBox="0 0 45 33" fill="none" xmlns="http://www.w3.org/2000/svg">
<rect width="12.8951" height="5.01768" transform="matrix(0.715662 0.698447 -0.699105 0.715019 16.3963 19.771)" fill="white"/>
<rect width="13.1022" height="4.76436" transform="matrix(0.707107 -0.707107 -0.707107 -0.707107 22.1 32.2544)" fill="white"/>
<circle cx="12.1429" cy="11.7619" r="9.28571" stroke="white" stroke-width="4.95238"/>
<path fill-rule="evenodd" clip-rule="evenodd" d="M25.3334 11.7619C25.3334 8.00111 28.3821 4.95238 32.1429 4.95238C34.5939 4.95238 36.7425 6.24737 37.9418 8.19048H43.3528C41.8408 3.4407 37.3937 0 32.1429 0C25.647 0 20.381 5.26599 20.381 11.7619C20.381 18.2578 25.647 23.5238 32.1429 23.5238C37.3937 23.5238 41.8408 20.0831 43.3528 15.3333H37.9418C36.7425 17.2764 34.5939 18.5714 32.1429 18.5714C28.3821 18.5714 25.3334 15.5227 25.3334 11.7619Z" fill="white"/>
<circle cx="12.1429" cy="11.7619" r="3.57143" fill="white"/>
<circle cx="32.1429" cy="11.7619" r="3.57143" fill="white"/>
<path d="M40.0001 6.76192L45.0001 1.04763H35.7143L40.0001 6.76192Z" fill="white"/>
<path d="M5.38469 6.76192L7.53403e-05 1.04763H10.0001L5.38469 6.76192Z" fill="white"/>
</svg>
