<svg width="47" height="44" viewBox="0 0 47 44" fill="none" xmlns="http://www.w3.org/2000/svg">
<rect width="10.9113" height="4.24573" transform="matrix(0.715662 0.698447 -0.699105 0.715019 18.1046 30.2677)" fill="white"/>
<rect width="11.0864" height="4.03138" transform="matrix(0.707107 -0.707107 -0.707107 -0.707107 22.9309 40.8306)" fill="white"/>
<circle cx="14.5055" cy="23.4908" r="7.85714" stroke="white" stroke-width="4.19048"/>
<path fill-rule="evenodd" clip-rule="evenodd" d="M25.6666 23.4908C25.6666 20.3086 28.2463 17.7289 31.4285 17.7289C33.5025 17.7289 35.3205 18.8247 36.3353 20.4689H40.9138C39.6345 16.4498 35.8715 13.5385 31.4285 13.5385C25.932 13.5385 21.4762 17.9943 21.4762 23.4908C21.4762 28.9874 25.932 33.4432 31.4285 33.4432C35.8715 33.4432 39.6345 30.5319 40.9138 26.5128H36.3353C35.3206 28.157 33.5025 29.2528 31.4285 29.2528C28.2463 29.2528 25.6666 26.6731 25.6666 23.4908Z" fill="white"/>
<circle cx="14.5055" cy="23.4908" r="3.02198" fill="white"/>
<circle cx="31.4286" cy="23.4908" r="3.02198" fill="white"/>
<path d="M38.0769 19.2601L42.3077 14.4249H34.4506L38.0769 19.2601Z" fill="white"/>
<path d="M8.78718 19.2601L4.23097 14.4249H12.6925L8.78718 19.2601Z" fill="white"/>
<path d="M12.8506 8.66031C12.4242 8.66031 12.0722 8.58924 11.7946 8.44708C11.5171 8.30493 11.3106 8.11878 11.1753 7.88862C11.0399 7.6517 10.9722 7.39447 10.9722 7.11693C10.9722 6.62954 11.1617 6.2437 11.5408 5.95939C11.9199 5.67508 12.4614 5.53293 13.1654 5.53293H14.4854V5.44154C14.4854 5.04893 14.3771 4.75447 14.1605 4.55816C13.9506 4.36185 13.6765 4.2637 13.338 4.2637C13.0402 4.2637 12.7796 4.33816 12.5562 4.48708C12.3396 4.62924 12.2076 4.84247 12.1602 5.12677H11.0839C11.1177 4.76124 11.2396 4.44985 11.4494 4.19262C11.666 3.92862 11.9368 3.72893 12.2617 3.59354C12.5934 3.45139 12.9556 3.38031 13.3482 3.38031C14.0522 3.38031 14.5971 3.56647 14.983 3.93877C15.3688 4.30431 15.5617 4.80524 15.5617 5.44154V8.53847H14.6276L14.5362 7.67539C14.394 7.95293 14.1876 8.18647 13.9168 8.37601C13.646 8.56554 13.2906 8.66031 12.8506 8.66031ZM13.0639 7.78708C13.355 7.78708 13.5986 7.71939 13.795 7.58401C13.998 7.44185 14.1537 7.2557 14.262 7.02554C14.3771 6.79539 14.4482 6.54154 14.4753 6.26401H13.2771C12.8506 6.26401 12.546 6.33847 12.3633 6.48739C12.1873 6.63631 12.0993 6.82247 12.0993 7.04585C12.0993 7.27601 12.1839 7.45877 12.3531 7.59416C12.5291 7.72278 12.766 7.78708 13.0639 7.78708ZM16.6771 8.53847V1.2277H17.7534V8.53847H16.6771ZM20.8349 8.66031C20.2257 8.66031 19.7451 8.47078 19.3931 8.0917C19.0478 7.71262 18.8752 7.14739 18.8752 6.39601V3.50216H19.9515V6.28431C19.9515 7.25908 20.3509 7.74647 21.1497 7.74647C21.5491 7.74647 21.8774 7.60431 22.1346 7.32001C22.3918 7.0357 22.5204 6.62954 22.5204 6.10154V3.50216H23.5968V8.53847H22.6423L22.5611 7.65508C22.4054 7.96647 22.1752 8.21354 21.8706 8.39631C21.5728 8.57231 21.2275 8.66031 20.8349 8.66031ZM24.8263 8.53847V3.50216H25.7808L25.862 4.38554C26.0177 4.07416 26.2445 3.83047 26.5423 3.65447C26.8469 3.4717 27.1955 3.38031 27.5882 3.38031C28.1974 3.38031 28.6746 3.56985 29.0199 3.94893C29.3719 4.32801 29.5479 4.89324 29.5479 5.64462V8.53847H28.4817V5.75631C28.4817 4.78154 28.0823 4.29416 27.2835 4.29416C26.8842 4.29416 26.5525 4.43631 26.2885 4.72062C26.0312 5.00493 25.9026 5.41108 25.9026 5.93908V8.53847H24.8263ZM33.0316 8.66031C32.551 8.66031 32.1177 8.55201 31.7319 8.33539C31.3528 8.11201 31.0516 7.80401 30.8282 7.41139C30.6048 7.01201 30.4931 6.54831 30.4931 6.02031C30.4931 5.49231 30.6048 5.03201 30.8282 4.63939C31.0583 4.24001 31.3663 3.93201 31.7522 3.71539C32.138 3.49201 32.5679 3.38031 33.0417 3.38031C33.5223 3.38031 33.9522 3.49201 34.3313 3.71539C34.7171 3.93201 35.0217 4.24001 35.2451 4.63939C35.4753 5.03201 35.5903 5.49231 35.5903 6.02031C35.5903 6.54831 35.4753 7.01201 35.2451 7.41139C35.0217 7.80401 34.7171 8.11201 34.3313 8.33539C33.9454 8.55201 33.5122 8.66031 33.0316 8.66031ZM33.0316 7.73631C33.2888 7.73631 33.5257 7.67201 33.7423 7.54339C33.9657 7.41477 34.1451 7.22524 34.2805 6.97477C34.4159 6.71754 34.4836 6.39939 34.4836 6.02031C34.4836 5.64124 34.4159 5.32647 34.2805 5.07601C34.1519 4.81877 33.9759 4.62585 33.7525 4.49724C33.5359 4.36862 33.299 4.30431 33.0417 4.30431C32.7845 4.30431 32.5442 4.36862 32.3208 4.49724C32.1042 4.62585 31.9282 4.81877 31.7928 5.07601C31.6574 5.32647 31.5897 5.64124 31.5897 6.02031C31.5897 6.39939 31.6574 6.71754 31.7928 6.97477C31.9282 7.22524 32.1042 7.41477 32.3208 7.54339C32.5374 7.67201 32.7743 7.73631 33.0316 7.73631Z" fill="white"/>
<rect y="39.7692" width="7.61538" height="3.38462" fill="#316791"/>
<rect y="43.1538" width="7.61538" height="3.38462" transform="rotate(-90 0 43.1538)" fill="#316791"/>
<rect width="7.61538" height="3.38462" transform="matrix(-1 0 0 1 46.5385 40.6154)" fill="#316791"/>
<rect width="7.61538" height="3.38462" transform="matrix(0 -1 -1 0 46.5385 44)" fill="#316791"/>
<rect x="46.5385" y="3.38461" width="7.61538" height="3.38462" transform="rotate(-180 46.5385 3.38461)" fill="#316791"/>
<rect x="46.5385" width="7.61538" height="3.38462" transform="rotate(90 46.5385 0)" fill="#316791"/>
<rect width="7.61538" height="3.38462" transform="matrix(1 0 0 -1 0 3.38461)" fill="#316791"/>
<rect width="7.61538" height="3.38462" transform="matrix(0 1 1 0 0 0)" fill="#316791"/>
</svg>
