<svg width="173" height="63" viewBox="0 0 173 63" fill="none" xmlns="http://www.w3.org/2000/svg">
<path d="M158.556 43.0322L156.785 37.1074H142.064L140.293 43.0322H126.489L141.82 1.00865H157.518L172.849 43.0322H158.556ZM144.874 27.7009H153.975L149.577 12.7362H149.333L144.874 27.7009Z" fill="white"/>
<path d="M28.8377 11.7589V43.0322H15.3388V11.7589H1.53454V1.00865H42.5808V11.7589H28.8377Z" fill="white"/>
<rect width="25.015" height="9.73369" transform="matrix(0.715662 0.698447 -0.699105 0.715019 76.1469 38.3533)" fill="white"/>
<rect width="25.4166" height="9.2423" transform="matrix(0.707107 -0.707107 -0.707107 -0.707107 87.2114 62.5696)" fill="white"/>
<circle cx="67.8958" cy="22.8167" r="18.0132" stroke="white" stroke-width="9.60703"/>
<path fill-rule="evenodd" clip-rule="evenodd" d="M93.4837 22.8167C93.4837 15.5212 99.3979 9.60703 106.693 9.60703C111.448 9.60703 115.616 12.1192 117.943 15.8886H128.439C125.506 6.67454 116.879 0 106.693 0C94.0921 0 83.8767 10.2154 83.8767 22.8167C83.8767 35.418 94.0921 45.6334 106.693 45.6334C116.879 45.6334 125.506 38.9589 128.439 29.7449H117.943C115.616 33.5142 111.448 36.0263 106.693 36.0263C99.3979 36.0263 93.4837 30.1122 93.4837 22.8167Z" fill="white"/>
<circle cx="67.8958" cy="22.8167" r="6.92814" fill="white"/>
<circle cx="106.693" cy="22.8167" r="6.92814" fill="white"/>
<path d="M121.935 13.1173L131.635 2.03228H113.622L121.935 13.1173Z" fill="white"/>
<path d="M54.7857 13.1173L44.3402 2.03228H63.739L54.7857 13.1173Z" fill="white"/>
</svg>
