<svg width="45" height="47" viewBox="0 0 45 47" fill="none" xmlns="http://www.w3.org/2000/svg">
<rect width="12.8951" height="5.01768" transform="matrix(0.715662 0.698447 -0.699105 0.715019 16.3963 33.7709)" fill="white"/>
<rect width="13.1022" height="4.76436" transform="matrix(0.707107 -0.707107 -0.707107 -0.707107 22.1 46.2544)" fill="white"/>
<circle cx="12.1429" cy="25.7619" r="9.28571" stroke="white" stroke-width="4.95238"/>
<path fill-rule="evenodd" clip-rule="evenodd" d="M25.3334 25.7619C25.3334 22.0011 28.3821 18.9524 32.1429 18.9524C34.594 18.9524 36.7426 20.2474 37.9419 22.1905H43.3528C41.8409 17.4407 37.3937 14 32.1429 14C25.647 14 20.381 19.266 20.381 25.7619C20.381 32.2578 25.647 37.5238 32.1429 37.5238C37.3937 37.5238 41.8409 34.0831 43.3528 29.3333H37.9419C36.7426 31.2764 34.594 32.5714 32.1429 32.5714C28.3821 32.5714 25.3334 29.5227 25.3334 25.7619Z" fill="white"/>
<circle cx="12.1429" cy="25.7619" r="3.57143" fill="white"/>
<circle cx="32.1429" cy="25.7619" r="3.57143" fill="white"/>
<path d="M40.0001 20.762L45.0001 15.0477H35.7143L40.0001 20.762Z" fill="white"/>
<path d="M5.38469 20.762L7.53403e-05 15.0477H10.0001L5.38469 20.762Z" fill="white"/>
<path d="M10.1871 9.144C9.68311 9.144 9.26711 9.06 8.93911 8.892C8.61111 8.724 8.36711 8.504 8.20711 8.232C8.04711 7.952 7.96711 7.648 7.96711 7.32C7.96711 6.744 8.19111 6.288 8.63911 5.952C9.08711 5.616 9.72711 5.448 10.5591 5.448H12.1191V5.34C12.1191 4.876 11.9911 4.528 11.7351 4.296C11.4871 4.064 11.1631 3.948 10.7631 3.948C10.4111 3.948 10.1031 4.036 9.83911 4.212C9.58311 4.38 9.42711 4.632 9.37111 4.968H8.09911C8.13911 4.536 8.28311 4.168 8.53111 3.864C8.78711 3.552 9.10711 3.316 9.49111 3.156C9.88311 2.988 10.3111 2.904 10.7751 2.904C11.6071 2.904 12.2511 3.124 12.7071 3.564C13.1631 3.996 13.3911 4.588 13.3911 5.34V9H12.2871L12.1791 7.98C12.0111 8.308 11.7671 8.584 11.4471 8.808C11.1271 9.032 10.7071 9.144 10.1871 9.144ZM10.4391 8.112C10.7831 8.112 11.0711 8.032 11.3031 7.872C11.5431 7.704 11.7271 7.484 11.8551 7.212C11.9911 6.94 12.0751 6.64 12.1071 6.312H10.6911C10.1871 6.312 9.82711 6.4 9.61111 6.576C9.40311 6.752 9.29911 6.972 9.29911 7.236C9.29911 7.508 9.39911 7.724 9.59911 7.884C9.80711 8.036 10.0871 8.112 10.4391 8.112ZM14.7092 9V0.36H15.9812V9H14.7092ZM19.623 9.144C18.903 9.144 18.335 8.92 17.919 8.472C17.511 8.024 17.307 7.356 17.307 6.468V3.048H18.579V6.336C18.579 7.488 19.051 8.064 19.995 8.064C20.467 8.064 20.855 7.896 21.159 7.56C21.463 7.224 21.615 6.744 21.615 6.12V3.048H22.887V9H21.759L21.663 7.956C21.479 8.324 21.207 8.616 20.847 8.832C20.495 9.04 20.087 9.144 19.623 9.144ZM24.3402 9V3.048H25.4682L25.5642 4.092C25.7482 3.724 26.0162 3.436 26.3682 3.228C26.7282 3.012 27.1402 2.904 27.6042 2.904C28.3242 2.904 28.8882 3.128 29.2962 3.576C29.7122 4.024 29.9202 4.692 29.9202 5.58V9H28.6602V5.712C28.6602 4.56 28.1882 3.984 27.2442 3.984C26.7722 3.984 26.3802 4.152 26.0682 4.488C25.7642 4.824 25.6122 5.304 25.6122 5.928V9H24.3402ZM34.0373 9.144C33.4693 9.144 32.9573 9.016 32.5013 8.76C32.0533 8.496 31.6973 8.132 31.4333 7.668C31.1693 7.196 31.0373 6.648 31.0373 6.024C31.0373 5.4 31.1693 4.856 31.4333 4.392C31.7053 3.92 32.0693 3.556 32.5253 3.3C32.9813 3.036 33.4893 2.904 34.0493 2.904C34.6173 2.904 35.1253 3.036 35.5733 3.3C36.0293 3.556 36.3893 3.92 36.6533 4.392C36.9253 4.856 37.0613 5.4 37.0613 6.024C37.0613 6.648 36.9253 7.196 36.6533 7.668C36.3893 8.132 36.0293 8.496 35.5733 8.76C35.1173 9.016 34.6053 9.144 34.0373 9.144ZM34.0373 8.052C34.3413 8.052 34.6213 7.976 34.8773 7.824C35.1413 7.672 35.3533 7.448 35.5133 7.152C35.6733 6.848 35.7533 6.472 35.7533 6.024C35.7533 5.576 35.6733 5.204 35.5133 4.908C35.3613 4.604 35.1533 4.376 34.8893 4.224C34.6333 4.072 34.3533 3.996 34.0493 3.996C33.7453 3.996 33.4613 4.072 33.1973 4.224C32.9413 4.376 32.7333 4.604 32.5733 4.908C32.4133 5.204 32.3333 5.576 32.3333 6.024C32.3333 6.472 32.4133 6.848 32.5733 7.152C32.7333 7.448 32.9413 7.672 33.1973 7.824C33.4533 7.976 33.7333 8.052 34.0373 8.052Z" fill="white"/>
</svg>
