<svg width="45" height="47" viewBox="0 0 45 47" fill="none" xmlns="http://www.w3.org/2000/svg">
<rect width="12.8951" height="5.01768" transform="matrix(0.715662 0.698447 -0.699105 0.715019 16.3963 33.771)" fill="white"/>
<rect width="13.1022" height="4.76436" transform="matrix(0.707107 -0.707107 -0.707107 -0.707107 22.1 46.2544)" fill="white"/>
<circle cx="12.1429" cy="25.7619" r="9.28571" stroke="white" stroke-width="4.95238"/>
<path fill-rule="evenodd" clip-rule="evenodd" d="M25.3334 25.7619C25.3334 22.0011 28.3821 18.9524 32.1429 18.9524C34.594 18.9524 36.7426 20.2474 37.9419 22.1905H43.3528C41.8409 17.4407 37.3937 14 32.1429 14C25.647 14 20.381 19.266 20.381 25.7619C20.381 32.2578 25.647 37.5238 32.1429 37.5238C37.3937 37.5238 41.8409 34.0831 43.3528 29.3333H37.9419C36.7426 31.2764 34.594 32.5714 32.1429 32.5714C28.3821 32.5714 25.3334 29.5227 25.3334 25.7619Z" fill="white"/>
<circle cx="12.1429" cy="25.7619" r="3.57143" fill="white"/>
<circle cx="32.1429" cy="25.7619" r="3.57143" fill="white"/>
<path d="M40.0001 20.7619L45.0001 15.0476H35.7144L40.0001 20.7619Z" fill="white"/>
<path d="M5.38471 20.7619L9.05991e-05 15.0476H10.0001L5.38471 20.7619Z" fill="white"/>
<path d="M7.90781 9.144C7.40381 9.144 6.98781 9.06 6.65981 8.892C6.33181 8.724 6.08781 8.504 5.92781 8.232C5.76781 7.952 5.68781 7.648 5.68781 7.32C5.68781 6.744 5.91181 6.288 6.35981 5.952C6.80781 5.616 7.44781 5.448 8.27981 5.448H9.83981V5.34C9.83981 4.876 9.71181 4.528 9.45581 4.296C9.20781 4.064 8.88381 3.948 8.48381 3.948C8.13181 3.948 7.82381 4.036 7.55981 4.212C7.30381 4.38 7.14781 4.632 7.09181 4.968H5.81981C5.85981 4.536 6.00381 4.168 6.25181 3.864C6.50781 3.552 6.82781 3.316 7.21181 3.156C7.60381 2.988 8.03181 2.904 8.49581 2.904C9.32781 2.904 9.97181 3.124 10.4278 3.564C10.8838 3.996 11.1118 4.588 11.1118 5.34V9H10.0078L9.89981 7.98C9.73181 8.308 9.48781 8.584 9.16781 8.808C8.84781 9.032 8.42781 9.144 7.90781 9.144ZM8.15981 8.112C8.50381 8.112 8.79181 8.032 9.02381 7.872C9.26381 7.704 9.44781 7.484 9.57581 7.212C9.71181 6.94 9.79581 6.64 9.82781 6.312H8.41181C7.90781 6.312 7.54781 6.4 7.33181 6.576C7.12381 6.752 7.01981 6.972 7.01981 7.236C7.01981 7.508 7.11981 7.724 7.31981 7.884C7.52781 8.036 7.80781 8.112 8.15981 8.112ZM15.1419 9.144C14.5659 9.144 14.0579 9.008 13.6179 8.736C13.1779 8.464 12.8339 8.092 12.5859 7.62C12.3379 7.148 12.2139 6.612 12.2139 6.012C12.2139 5.412 12.3379 4.88 12.5859 4.416C12.8339 3.944 13.1779 3.576 13.6179 3.312C14.0659 3.04 14.5779 2.904 15.1539 2.904C15.6259 2.904 16.0379 2.996 16.3899 3.18C16.7499 3.364 17.0299 3.624 17.2299 3.96V0.36H18.5019V9H17.3619L17.2299 8.076C17.0379 8.356 16.7739 8.604 16.4379 8.82C16.1019 9.036 15.6699 9.144 15.1419 9.144ZM15.3699 8.04C15.9139 8.04 16.3579 7.852 16.7019 7.476C17.0539 7.1 17.2299 6.616 17.2299 6.024C17.2299 5.424 17.0539 4.94 16.7019 4.572C16.3579 4.196 15.9139 4.008 15.3699 4.008C14.8259 4.008 14.3779 4.196 14.0259 4.572C13.6739 4.94 13.4979 5.424 13.4979 6.024C13.4979 6.416 13.5779 6.764 13.7379 7.068C13.8979 7.372 14.1179 7.612 14.3979 7.788C14.6859 7.956 15.0099 8.04 15.3699 8.04ZM19.9407 9V3.048H21.0687L21.1767 3.888C21.3687 3.584 21.6207 3.344 21.9327 3.168C22.2527 2.992 22.6207 2.904 23.0367 2.904C23.9807 2.904 24.6367 3.276 25.0047 4.02C25.2207 3.676 25.5087 3.404 25.8687 3.204C26.2367 3.004 26.6327 2.904 27.0567 2.904C27.8007 2.904 28.3847 3.128 28.8087 3.576C29.2327 4.024 29.4447 4.692 29.4447 5.58V9H28.1727V5.712C28.1727 4.56 27.7327 3.984 26.8527 3.984C26.4047 3.984 26.0367 4.152 25.7487 4.488C25.4687 4.824 25.3287 5.304 25.3287 5.928V9H24.0567V5.712C24.0567 4.56 23.6127 3.984 22.7247 3.984C22.2847 3.984 21.9207 4.152 21.6327 4.488C21.3527 4.824 21.2127 5.304 21.2127 5.928V9H19.9407ZM31.4879 1.92C31.2479 1.92 31.0479 1.848 30.8879 1.704C30.7359 1.552 30.6599 1.364 30.6599 1.14C30.6599 0.916 30.7359 0.732 30.8879 0.588C31.0479 0.436 31.2479 0.36 31.4879 0.36C31.7279 0.36 31.9239 0.436 32.0759 0.588C32.2359 0.732 32.3159 0.916 32.3159 1.14C32.3159 1.364 32.2359 1.552 32.0759 1.704C31.9239 1.848 31.7279 1.92 31.4879 1.92ZM30.8519 9V3.048H32.1239V9H30.8519ZM33.6381 9V3.048H34.7661L34.8621 4.092C35.0461 3.724 35.3141 3.436 35.6661 3.228C36.0261 3.012 36.4381 2.904 36.9021 2.904C37.6221 2.904 38.1861 3.128 38.5941 3.576C39.0101 4.024 39.2181 4.692 39.2181 5.58V9H37.9581V5.712C37.9581 4.56 37.4861 3.984 36.5421 3.984C36.0701 3.984 35.6781 4.152 35.3661 4.488C35.0621 4.824 34.9101 5.304 34.9101 5.928V9H33.6381Z" fill="white"/>
</svg>
