<svg width="239" height="104" viewBox="0 0 239 104" fill="none" xmlns="http://www.w3.org/2000/svg">
<path d="M212.819 57.7277L210.442 49.7751H190.683L188.306 57.7277H169.777L190.355 1.32219H211.426L232.004 57.7277H212.819ZM194.455 37.1495H206.67L200.768 17.0633H200.44L194.455 37.1495Z" fill="white"/>
<path d="M38.7069 15.7515V57.7277H20.5883V15.7515H2.05971V1.32219H57.1534V15.7515H38.7069Z" fill="white"/>
<rect width="33.576" height="13.0649" transform="matrix(0.715662 0.698447 -0.699105 0.715019 102.207 51.4791)" fill="white"/>
<rect width="34.1151" height="12.4053" transform="matrix(0.707107 -0.707107 -0.707107 -0.707107 117.058 83.983)" fill="white"/>
<circle cx="91.1322" cy="30.6253" r="24.1779" stroke="white" stroke-width="12.8949"/>
<path fill-rule="evenodd" clip-rule="evenodd" d="M125.477 30.6253C125.477 20.8331 133.415 12.8949 143.208 12.8949C149.59 12.8949 155.184 16.2668 158.307 21.3262H172.396C168.459 8.95882 156.879 0 143.208 0C126.294 0 112.582 13.7114 112.582 30.6253C112.582 47.5392 126.294 61.2507 143.208 61.2507C156.879 61.2507 168.459 52.2919 172.396 39.9246H158.307C155.184 44.984 149.59 48.3558 143.208 48.3558C133.415 48.3558 125.477 40.4176 125.477 30.6253Z" fill="white"/>
<circle cx="91.1322" cy="30.6254" r="9.29919" fill="white"/>
<circle cx="143.208" cy="30.6254" r="9.29919" fill="white"/>
<path d="M163.666 17.6064L176.685 2.72774H152.507L163.666 17.6064Z" fill="white"/>
<path d="M73.5356 17.6064L59.5152 2.72774H85.553L73.5356 17.6064Z" fill="white"/>
<path d="M140.271 88.0218C140.271 86.3355 140.608 84.8675 141.282 83.6177C141.957 82.348 142.889 81.3661 144.08 80.6717C145.29 79.9774 146.669 79.6302 148.216 79.6302C150.22 79.6302 151.866 80.1162 153.156 81.0883C154.465 82.0604 155.328 83.4094 155.745 85.1353H152.828C152.551 84.1434 152.005 83.3598 151.192 82.7845C150.398 82.2092 149.406 81.9215 148.216 81.9215C146.669 81.9215 145.419 82.4572 144.466 83.5284C143.514 84.5798 143.038 86.0776 143.038 88.0218C143.038 89.9858 143.514 91.5034 144.466 92.5747C145.419 93.6459 146.669 94.1816 148.216 94.1816C149.406 94.1816 150.398 93.9038 151.192 93.3484C151.985 92.7929 152.531 91.9994 152.828 90.9678H155.745C155.308 92.6342 154.435 93.9733 153.126 94.985C151.817 95.9769 150.18 96.4729 148.216 96.4729C146.669 96.4729 145.29 96.1257 144.08 95.4314C142.889 94.737 141.957 93.7551 141.282 92.4854C140.608 91.2158 140.271 89.7279 140.271 88.0218ZM166.47 96.4729C164.942 96.4729 163.554 96.1257 162.304 95.4314C161.074 94.737 160.102 93.7551 159.387 92.4854C158.693 91.1959 158.346 89.708 158.346 88.0218C158.346 86.3554 158.703 84.8873 159.417 83.6177C160.151 82.3282 161.143 81.3462 162.393 80.6717C163.643 79.9774 165.041 79.6302 166.589 79.6302C168.136 79.6302 169.535 79.9774 170.785 80.6717C172.034 81.3462 173.016 82.3183 173.731 83.5879C174.465 84.8576 174.832 86.3355 174.832 88.0218C174.832 89.708 174.455 91.1959 173.701 92.4854C172.967 93.7551 171.965 94.737 170.695 95.4314C169.426 96.1257 168.017 96.4729 166.47 96.4729ZM166.47 94.0923C167.442 94.0923 168.354 93.8642 169.207 93.4079C170.06 92.9516 170.745 92.2672 171.261 91.3546C171.796 90.4421 172.064 89.3311 172.064 88.0218C172.064 86.7125 171.806 85.6015 171.29 84.689C170.775 83.7764 170.1 83.1019 169.267 82.6655C168.434 82.2092 167.531 81.981 166.559 81.981C165.567 81.981 164.655 82.2092 163.821 82.6655C163.008 83.1019 162.353 83.7764 161.857 84.689C161.361 85.6015 161.113 86.7125 161.113 88.0218C161.113 89.351 161.351 90.4718 161.828 91.3844C162.324 92.2969 162.978 92.9814 163.792 93.4376C164.605 93.8741 165.498 94.0923 166.47 94.0923ZM181.1 82.5464C181.576 81.614 182.251 80.8899 183.123 80.3741C184.016 79.8583 185.097 79.6004 186.367 79.6004V82.3976H185.653C182.618 82.3976 181.1 84.0442 181.1 87.3374V96.2051H178.392V79.898H181.1V82.5464ZM203.955 79.898V96.2051H201.247V93.7947C200.731 94.6279 200.007 95.2826 199.075 95.7587C198.162 96.215 197.15 96.4431 196.04 96.4431C194.77 96.4431 193.629 96.1852 192.617 95.6694C191.606 95.1338 190.802 94.3403 190.207 93.2889C189.632 92.2374 189.344 90.9579 189.344 89.4501V79.898H192.022V89.0931C192.022 90.7 192.429 91.9398 193.242 92.8127C194.056 93.6658 195.167 94.0923 196.575 94.0923C198.023 94.0923 199.164 93.6459 199.997 92.7532C200.83 91.8605 201.247 90.5611 201.247 88.855V79.898H203.955ZM209.985 77.2496C209.47 77.2496 209.033 77.0711 208.676 76.714C208.339 76.3569 208.17 75.9204 208.17 75.4046C208.17 74.8889 208.339 74.4524 208.676 74.0953C209.033 73.7382 209.47 73.5597 209.985 73.5597C210.501 73.5597 210.928 73.7382 211.265 74.0953C211.622 74.4524 211.801 74.8889 211.801 75.4046C211.801 75.9204 211.622 76.3569 211.265 76.714C210.928 77.0711 210.501 77.2496 209.985 77.2496ZM211.324 99.7462C211.324 101.194 210.957 102.256 210.223 102.93C209.489 103.605 208.418 103.942 207.01 103.942H205.432V101.651H206.563C207.317 101.651 207.843 101.502 208.14 101.204C208.458 100.907 208.616 100.401 208.616 99.6867V79.898H211.324V99.7462ZM214.897 87.992C214.897 86.3256 215.234 84.8675 215.908 83.6177C216.583 82.348 217.505 81.3661 218.676 80.6717C219.866 79.9774 221.185 79.6302 222.634 79.6302C224.062 79.6302 225.302 79.9377 226.353 80.5527C227.405 81.1677 228.188 81.9414 228.704 82.8738V79.898H231.442V96.2051H228.704V93.1698C228.168 94.1221 227.365 94.9156 226.294 95.5504C225.242 96.1654 224.012 96.4729 222.604 96.4729C221.156 96.4729 219.846 96.1158 218.676 95.4016C217.505 94.6875 216.583 93.6856 215.908 92.3961C215.234 91.1066 214.897 89.6386 214.897 87.992ZM228.704 88.0218C228.704 86.7918 228.456 85.7206 227.96 84.808C227.464 83.8954 226.79 83.2011 225.937 82.725C225.103 82.229 224.181 81.981 223.169 81.981C222.157 81.981 221.235 82.2191 220.402 82.6952C219.569 83.1713 218.904 83.8657 218.408 84.7782C217.912 85.6908 217.664 86.7621 217.664 87.992C217.664 89.2418 217.912 90.3329 218.408 91.2653C218.904 92.1779 219.569 92.8822 220.402 93.3781C221.235 93.8542 222.157 94.0923 223.169 94.0923C224.181 94.0923 225.103 93.8542 225.937 93.3781C226.79 92.8822 227.464 92.1779 227.96 91.2653C228.456 90.3329 228.704 89.2518 228.704 88.0218Z" fill="white"/>
<path d="M159.83 69.136C159.83 68.3028 159.999 67.5738 160.336 66.9489C160.674 66.314 161.135 65.823 161.72 65.4759C162.315 65.1287 162.98 64.9551 163.714 64.9551C164.349 64.9551 164.939 65.1039 165.484 65.4015C166.03 65.6891 166.447 66.071 166.734 66.5471V62.2323H168.103V73.2426H166.734V71.71C166.466 72.1961 166.07 72.5978 165.544 72.9152C165.018 73.2227 164.403 73.3765 163.699 73.3765C162.975 73.3765 162.315 73.1979 161.72 72.8408C161.135 72.4837 160.674 71.9828 160.336 71.3381C159.999 70.6933 159.83 69.9593 159.83 69.136ZM166.734 69.1509C166.734 68.5359 166.61 68.0003 166.362 67.544C166.114 67.0877 165.777 66.7406 165.35 66.5025C164.934 66.2545 164.473 66.1305 163.967 66.1305C163.461 66.1305 163 66.2496 162.583 66.4876C162.166 66.7257 161.834 67.0729 161.586 67.5291C161.338 67.9854 161.214 68.521 161.214 69.136C161.214 69.7609 161.338 70.3065 161.586 70.7727C161.834 71.229 162.166 71.5811 162.583 71.8291C163 72.0671 163.461 72.1862 163.967 72.1862C164.473 72.1862 164.934 72.0671 165.35 71.8291C165.777 71.5811 166.114 71.229 166.362 70.7727C166.61 70.3065 166.734 69.7659 166.734 69.1509ZM169.885 69.136C169.885 68.3028 170.054 67.5738 170.391 66.9489C170.728 66.314 171.19 65.823 171.775 65.4759C172.37 65.1287 173.03 64.9551 173.754 64.9551C174.468 64.9551 175.088 65.1089 175.614 65.4164C176.139 65.7238 176.531 66.1107 176.789 66.5769V65.089H178.158V73.2426H176.789V71.7249C176.521 72.201 176.119 72.5978 175.584 72.9152C175.058 73.2227 174.443 73.3765 173.739 73.3765C173.015 73.3765 172.36 73.1979 171.775 72.8408C171.19 72.4837 170.728 71.9828 170.391 71.3381C170.054 70.6933 169.885 69.9593 169.885 69.136ZM176.789 69.1509C176.789 68.5359 176.665 68.0003 176.417 67.544C176.169 67.0877 175.832 66.7406 175.405 66.5025C174.989 66.2545 174.527 66.1305 174.021 66.1305C173.516 66.1305 173.054 66.2496 172.638 66.4876C172.221 66.7257 171.889 67.0729 171.641 67.5291C171.393 67.9854 171.269 68.521 171.269 69.136C171.269 69.7609 171.393 70.3065 171.641 70.7727C171.889 71.229 172.221 71.5811 172.638 71.8291C173.054 72.0671 173.516 72.1862 174.021 72.1862C174.527 72.1862 174.989 72.0671 175.405 71.8291C175.832 71.5811 176.169 71.229 176.417 70.7727C176.665 70.3065 176.789 69.7659 176.789 69.1509Z" fill="white"/>
</svg>
