<svg width="243" height="107" viewBox="0 0 243 107" fill="none" xmlns="http://www.w3.org/2000/svg">
<path d="M217.056 58.782L214.631 50.6712H194.48L192.055 58.782H173.157L194.145 1.25357H215.635L236.623 58.782H217.056ZM198.326 37.7942H210.785L204.765 17.308H204.43L198.326 37.7942Z" fill="white"/>
<path d="M39.4775 15.9702V58.782H20.9982V15.9702H2.10072V1.25357H58.2913V15.9702H39.4775Z" fill="white"/>
<rect width="34.2445" height="13.325" transform="matrix(0.715662 0.698447 -0.699105 0.715019 104.242 52.504)" fill="white"/>
<rect width="34.7943" height="12.6523" transform="matrix(0.707107 -0.707107 -0.707107 -0.707107 119.389 85.6552)" fill="white"/>
<circle cx="92.9464" cy="31.2351" r="24.6593" stroke="white" stroke-width="13.1516"/>
<path fill-rule="evenodd" clip-rule="evenodd" d="M127.975 31.2351C127.975 21.2478 136.072 13.1516 146.059 13.1516C152.568 13.1516 158.274 16.5906 161.459 21.7508H175.828C171.813 9.13717 160.003 0 146.059 0C128.808 0 114.824 13.9844 114.824 31.2351C114.824 48.4857 128.808 62.4701 146.059 62.4701C160.003 62.4701 171.813 53.333 175.828 40.7194H161.459C158.274 45.8796 152.568 49.3185 146.059 49.3185C136.072 49.3185 127.975 41.2223 127.975 31.2351Z" fill="white"/>
<circle cx="92.9465" cy="31.2351" r="9.48433" fill="white"/>
<circle cx="146.059" cy="31.2351" r="9.48433" fill="white"/>
<path d="M166.924 17.957L180.202 2.7821H155.543L166.924 17.957Z" fill="white"/>
<path d="M74.9993 17.957L60.6998 2.7821H87.256L74.9993 17.957Z" fill="white"/>
<path d="M143.064 90.4558C143.064 88.736 143.407 87.2387 144.095 85.964C144.783 84.6691 145.734 83.6675 146.948 82.9594C148.183 82.2512 149.589 81.8971 151.167 81.8971C153.21 81.8971 154.89 82.3928 156.205 83.3843C157.54 84.3757 158.421 85.7516 158.845 87.5119H155.871C155.588 86.5002 155.031 85.701 154.202 85.1142C153.393 84.5274 152.381 84.2341 151.167 84.2341C149.589 84.2341 148.314 84.7804 147.343 85.873C146.372 86.9453 145.886 88.4729 145.886 90.4558C145.886 92.4589 146.372 94.0067 147.343 95.0993C148.314 96.1919 149.589 96.7382 151.167 96.7382C152.381 96.7382 153.393 96.4549 154.202 95.8884C155.011 95.3219 155.568 94.5126 155.871 93.4604H158.845C158.4 95.16 157.51 96.5258 156.175 97.5577C154.839 98.5693 153.17 99.0752 151.167 99.0752C149.589 99.0752 148.183 98.7211 146.948 98.0129C145.734 97.3047 144.783 96.3032 144.095 95.0083C143.407 93.7133 143.064 92.1958 143.064 90.4558ZM169.784 99.0752C168.226 99.0752 166.81 98.7211 165.535 98.0129C164.281 97.3047 163.289 96.3032 162.561 95.0083C161.853 93.6931 161.499 92.1756 161.499 90.4558C161.499 88.7562 161.863 87.2589 162.591 85.964C163.34 84.6488 164.352 83.6473 165.626 82.9594C166.901 82.2512 168.327 81.8971 169.906 81.8971C171.484 81.8971 172.91 82.2512 174.185 82.9594C175.46 83.6473 176.461 84.6387 177.19 85.9337C177.938 87.2286 178.313 88.736 178.313 90.4558C178.313 92.1756 177.928 93.6931 177.159 95.0083C176.411 96.3032 175.389 97.3047 174.094 98.0129C172.799 98.7211 171.362 99.0752 169.784 99.0752ZM169.784 96.6472C170.776 96.6472 171.706 96.4145 172.576 95.9491C173.446 95.4838 174.144 94.7857 174.671 93.855C175.217 92.9242 175.49 91.7912 175.49 90.4558C175.49 89.1204 175.227 87.9873 174.701 87.0566C174.175 86.1259 173.487 85.4379 172.637 84.9928C171.787 84.5274 170.867 84.2948 169.875 84.2948C168.864 84.2948 167.933 84.5274 167.083 84.9928C166.254 85.4379 165.586 86.1259 165.08 87.0566C164.574 87.9873 164.321 89.1204 164.321 90.4558C164.321 91.8114 164.564 92.9546 165.05 93.8853C165.555 94.8161 166.223 95.5141 167.053 95.9795C167.882 96.4246 168.793 96.6472 169.784 96.6472ZM184.706 84.8714C185.191 83.9205 185.879 83.1819 186.769 82.6559C187.68 82.1298 188.783 81.8668 190.078 81.8668V84.7197H189.349C186.254 84.7197 184.706 86.399 184.706 89.7577V98.802H181.944V82.1703H184.706V84.8714ZM208.016 82.1703V98.802H205.254V96.3437C204.728 97.1935 203.989 97.8612 203.038 98.3468C202.108 98.8121 201.076 99.0448 199.943 99.0448C198.648 99.0448 197.484 98.7818 196.452 98.2557C195.421 97.7094 194.601 96.9001 193.994 95.8277C193.407 94.7554 193.114 93.4503 193.114 91.9126V82.1703H195.845V91.5484C195.845 93.1873 196.26 94.4519 197.09 95.3421C197.919 96.2121 199.052 96.6472 200.489 96.6472C201.966 96.6472 203.129 96.1919 203.979 95.2814C204.829 94.3709 205.254 93.0456 205.254 91.3056V82.1703H208.016ZM214.166 79.4691C213.64 79.4691 213.195 79.287 212.831 78.9228C212.487 78.5586 212.315 78.1135 212.315 77.5874C212.315 77.0614 212.487 76.6163 212.831 76.2521C213.195 75.8879 213.64 75.7058 214.166 75.7058C214.692 75.7058 215.127 75.8879 215.471 76.2521C215.835 76.6163 216.017 77.0614 216.017 77.5874C216.017 78.1135 215.835 78.5586 215.471 78.9228C215.127 79.287 214.692 79.4691 214.166 79.4691ZM215.532 102.414C215.532 103.891 215.158 104.973 214.409 105.661C213.66 106.349 212.568 106.693 211.131 106.693H209.523V104.356H210.676C211.445 104.356 211.981 104.204 212.284 103.901C212.608 103.597 212.77 103.081 212.77 102.353V82.1703H215.532V102.414ZM219.175 90.4254C219.175 88.7258 219.519 87.2387 220.207 85.964C220.895 84.6691 221.836 83.6675 223.03 82.9594C224.244 82.2512 225.589 81.8971 227.066 81.8971C228.523 81.8971 229.788 82.2107 230.86 82.838C231.932 83.4652 232.732 84.2543 233.258 85.2053V82.1703H236.05V98.802H233.258V95.7063C232.711 96.6775 231.892 97.4868 230.799 98.1343C229.727 98.7615 228.472 99.0752 227.036 99.0752C225.559 99.0752 224.223 98.711 223.03 97.9826C221.836 97.2542 220.895 96.2324 220.207 94.9172C219.519 93.6021 219.175 92.1048 219.175 90.4254ZM233.258 90.4558C233.258 89.2013 233.005 88.1087 232.499 87.178C231.993 86.2473 231.305 85.5391 230.435 85.0535C229.585 84.5477 228.644 84.2948 227.613 84.2948C226.581 84.2948 225.64 84.5376 224.79 85.0232C223.94 85.5088 223.262 86.2169 222.757 87.1477C222.251 88.0784 221.998 89.171 221.998 90.4254C221.998 91.7001 222.251 92.813 222.757 93.7639C223.262 94.6947 223.94 95.4129 224.79 95.9188C225.64 96.4044 226.581 96.6472 227.613 96.6472C228.644 96.6472 229.585 96.4044 230.435 95.9188C231.305 95.4129 231.993 94.6947 232.499 93.7639C233.005 92.813 233.258 91.7103 233.258 90.4558Z" fill="white"/>
<path d="M163.012 70.2935C163.012 69.4437 163.184 68.7002 163.528 68.0628C163.872 67.4154 164.343 66.9146 164.94 66.5605C165.547 66.2064 166.224 66.0294 166.973 66.0294C167.62 66.0294 168.222 66.1811 168.779 66.4846C169.335 66.778 169.76 67.1675 170.054 67.6531V63.2524H171.45V74.4818H170.054V72.9188C169.78 73.4145 169.376 73.8242 168.84 74.148C168.303 74.4616 167.676 74.6184 166.958 74.6184C166.219 74.6184 165.547 74.4363 164.94 74.0721C164.343 73.7079 163.872 73.197 163.528 72.5394C163.184 71.8818 163.012 71.1332 163.012 70.2935ZM170.054 70.3087C170.054 69.6815 169.927 69.1352 169.674 68.6698C169.421 68.2044 169.077 67.8504 168.642 67.6076C168.217 67.3547 167.747 67.2282 167.231 67.2282C166.715 67.2282 166.245 67.3496 165.82 67.5924C165.395 67.8352 165.056 68.1893 164.803 68.6546C164.55 69.12 164.424 69.6663 164.424 70.2935C164.424 70.9309 164.55 71.4873 164.803 71.9628C165.056 72.4281 165.395 72.7873 165.82 73.0402C166.245 73.283 166.715 73.4044 167.231 73.4044C167.747 73.4044 168.217 73.283 168.642 73.0402C169.077 72.7873 169.421 72.4281 169.674 71.9628C169.927 71.4873 170.054 70.9359 170.054 70.3087ZM173.267 70.2935C173.267 69.4437 173.439 68.7002 173.783 68.0628C174.127 67.4154 174.598 66.9146 175.195 66.5605C175.802 66.2064 176.474 66.0294 177.213 66.0294C177.941 66.0294 178.573 66.1862 179.11 66.4998C179.646 66.8134 180.045 67.208 180.308 67.6834V66.1659H181.705V74.4818H180.308V72.934C180.035 73.4196 179.626 73.8242 179.079 74.148C178.543 74.4616 177.916 74.6184 177.198 74.6184C176.459 74.6184 175.791 74.4363 175.195 74.0721C174.598 73.7079 174.127 73.197 173.783 72.5394C173.439 71.8818 173.267 71.1332 173.267 70.2935ZM180.308 70.3087C180.308 69.6815 180.182 69.1352 179.929 68.6698C179.676 68.2044 179.332 67.8504 178.897 67.6076C178.472 67.3547 178.002 67.2282 177.486 67.2282C176.97 67.2282 176.5 67.3496 176.075 67.5924C175.65 67.8352 175.311 68.1893 175.058 68.6546C174.805 69.12 174.679 69.6663 174.679 70.2935C174.679 70.9309 174.805 71.4873 175.058 71.9628C175.311 72.4281 175.65 72.7873 176.075 73.0402C176.5 73.283 176.97 73.4044 177.486 73.4044C178.002 73.4044 178.472 73.283 178.897 73.0402C179.332 72.7873 179.676 72.4281 179.929 71.9628C180.182 71.4873 180.308 70.9359 180.308 70.3087Z" fill="white"/>
</svg>
