<svg width="304" height="75" viewBox="0 0 304 75" fill="none" xmlns="http://www.w3.org/2000/svg">
<path d="M95.4925 45L96.9005 36.68H74.8205L75.9725 30.152L102.277 0.199997H111.556L106.373 29.576H112.261L111.044 36.68H105.093L103.621 45H95.4925ZM84.8685 29.576H98.6925L102.277 9.224L84.8685 29.576ZM201.667 45L203.075 36.68H180.995L182.147 30.152L208.451 0.199997H217.731L212.547 29.576H218.435L217.219 36.68H211.267L209.795 45H201.667ZM191.043 29.576H204.867L208.451 9.224L191.043 29.576Z" fill="white"/>
<path d="M39.8282 70L42.2882 56H47.4682C48.4415 56 49.2482 56.1733 49.8882 56.52C50.5282 56.8533 51.0015 57.3 51.3082 57.86C51.6149 58.42 51.7682 59.0333 51.7682 59.7C51.7682 60.7133 51.5215 61.5867 51.0282 62.32C50.5349 63.04 49.8482 63.6 48.9682 64C48.1015 64.3867 47.1015 64.58 45.9682 64.58H43.3482L42.3882 70H39.8282ZM43.7082 62.5H46.1682C47.1015 62.5 47.8282 62.28 48.3482 61.84C48.8682 61.3867 49.1282 60.74 49.1282 59.9C49.1282 59.3533 48.9549 58.9133 48.6082 58.58C48.2615 58.2467 47.7082 58.08 46.9482 58.08H44.4882L43.7082 62.5ZM55.1498 70.24C54.0298 70.24 53.2098 69.9867 52.6898 69.48C52.1698 68.96 51.9098 68.34 51.9098 67.62C51.9098 66.5533 52.3564 65.7067 53.2498 65.08C54.1431 64.4533 55.3364 64.14 56.8298 64.14H59.3498L59.3898 63.9C59.4031 63.82 59.4098 63.74 59.4098 63.66C59.4231 63.5667 59.4298 63.4867 59.4298 63.42C59.4298 62.9133 59.2698 62.54 58.9498 62.3C58.6298 62.0467 58.2231 61.92 57.7298 61.92C57.2098 61.92 56.7298 62.0467 56.2898 62.3C55.8631 62.54 55.5564 62.9 55.3698 63.38H52.8698C53.0698 62.66 53.4164 62.0333 53.9098 61.5C54.4164 60.9667 55.0298 60.56 55.7498 60.28C56.4698 59.9867 57.2498 59.84 58.0898 59.84C59.3164 59.84 60.2764 60.1133 60.9698 60.66C61.6764 61.2067 62.0298 61.9933 62.0298 63.02C62.0298 63.1533 62.0231 63.3 62.0098 63.46C61.9964 63.6067 61.9764 63.7533 61.9498 63.9L60.8698 70H58.5898L58.6898 68.46C58.3031 68.9667 57.8164 69.3933 57.2298 69.74C56.6564 70.0733 55.9631 70.24 55.1498 70.24ZM56.0898 68.24C56.8231 68.24 57.4298 68 57.9098 67.52C58.4031 67.04 58.7631 66.4467 58.9898 65.74H56.8298C56.1631 65.74 55.6364 65.8733 55.2498 66.14C54.8631 66.4067 54.6698 66.7733 54.6698 67.24C54.6698 67.5733 54.7964 67.8267 55.0498 68C55.3164 68.16 55.6631 68.24 56.0898 68.24ZM57.1698 59.28L57.4898 57.48L62.4298 55.04L62.0698 57.12L57.1698 59.28ZM67.8487 67.04C67.3687 67.04 66.9287 66.9867 66.5287 66.88L65.7687 67.52C66.0087 67.6667 66.3087 67.7867 66.6687 67.88C67.0287 67.96 67.542 68.0267 68.2087 68.08C69.4753 68.1867 70.3753 68.48 70.9087 68.96C71.442 69.4267 71.7087 70.0267 71.7087 70.76C71.7087 71.52 71.482 72.1867 71.0287 72.76C70.5887 73.3467 69.982 73.8067 69.2087 74.14C68.4353 74.4733 67.5487 74.64 66.5487 74.64C65.2687 74.64 64.242 74.4067 63.4687 73.94C62.6953 73.4733 62.3087 72.78 62.3087 71.86C62.3087 71.2867 62.462 70.76 62.7687 70.28C63.0887 69.8133 63.5287 69.3933 64.0887 69.02C63.6487 68.7933 63.3087 68.54 63.0687 68.26L63.1487 67.8L65.1287 66.06C64.622 65.54 64.3687 64.8867 64.3687 64.1C64.3687 63.3133 64.582 62.6 65.0087 61.96C65.4353 61.3067 66.002 60.7933 66.7087 60.42C67.4287 60.0333 68.2287 59.84 69.1087 59.84C69.6687 59.84 70.1753 59.92 70.6287 60.08H74.3887L74.1087 61.64L72.3887 61.76C72.4953 62.08 72.5487 62.42 72.5487 62.78C72.5487 63.58 72.3353 64.3 71.9087 64.94C71.4953 65.58 70.9287 66.0933 70.2087 66.48C69.502 66.8533 68.7153 67.04 67.8487 67.04ZM68.1887 65.1C68.8153 65.1 69.3287 64.9133 69.7287 64.54C70.142 64.1667 70.3487 63.6867 70.3487 63.1C70.3487 62.6867 70.202 62.3667 69.9087 62.14C69.6153 61.9133 69.2353 61.8 68.7687 61.8C68.1287 61.8 67.602 61.9933 67.1887 62.38C66.7887 62.7533 66.5887 63.2267 66.5887 63.8C66.5887 64.2133 66.7287 64.5333 67.0087 64.76C67.302 64.9867 67.6953 65.1 68.1887 65.1ZM64.7287 71.36C64.7287 71.8 64.922 72.1333 65.3087 72.36C65.7087 72.5867 66.2287 72.7 66.8687 72.7C67.5487 72.7 68.122 72.5533 68.5887 72.26C69.0687 71.98 69.3087 71.5733 69.3087 71.04C69.3087 70.7333 69.1887 70.4667 68.9487 70.24C68.722 70.0133 68.2687 69.88 67.5887 69.84C67.042 69.8 66.5287 69.7333 66.0487 69.64C65.5953 69.8667 65.262 70.1267 65.0487 70.42C64.8353 70.7267 64.7287 71.04 64.7287 71.36ZM77.9723 58.6C77.5056 58.6 77.1189 58.46 76.8123 58.18C76.5189 57.8867 76.3723 57.5267 76.3723 57.1C76.3723 56.6733 76.5189 56.32 76.8123 56.04C77.1189 55.7467 77.5056 55.6 77.9723 55.6C78.4389 55.6 78.8189 55.7467 79.1123 56.04C79.4189 56.32 79.5723 56.6733 79.5723 57.1C79.5723 57.5267 79.4189 57.8867 79.1123 58.18C78.8189 58.46 78.4389 58.6 77.9723 58.6ZM74.4123 70L76.1523 60.08H78.7123L76.9723 70H74.4123ZM79.5379 70L81.2779 60.08H83.5379L83.4779 61.72C83.8912 61.1467 84.4112 60.6933 85.0379 60.36C85.6646 60.0133 86.3646 59.84 87.1379 59.84C88.1646 59.84 88.9579 60.1267 89.5179 60.7C90.0912 61.26 90.3779 62.0733 90.3779 63.14C90.3779 63.5133 90.3379 63.9333 90.2579 64.4L89.2579 70H86.6979L87.6579 64.64C87.6712 64.48 87.6846 64.3333 87.6979 64.2C87.7246 64.0533 87.7379 63.92 87.7379 63.8C87.7379 62.6 87.1446 62 85.9579 62C85.2512 62 84.6246 62.2533 84.0779 62.76C83.5312 63.2533 83.1779 63.9333 83.0179 64.8L82.0979 70H79.5379ZM94.8804 70.24C93.7604 70.24 92.9404 69.9867 92.4204 69.48C91.9004 68.96 91.6404 68.34 91.6404 67.62C91.6404 66.5533 92.0871 65.7067 92.9804 65.08C93.8737 64.4533 95.0671 64.14 96.5604 64.14H99.0804L99.1204 63.9C99.1337 63.82 99.1404 63.74 99.1404 63.66C99.1537 63.5667 99.1604 63.4867 99.1604 63.42C99.1604 62.9133 99.0004 62.54 98.6804 62.3C98.3604 62.0467 97.9537 61.92 97.4604 61.92C96.9404 61.92 96.4604 62.0467 96.0204 62.3C95.5937 62.54 95.2871 62.9 95.1004 63.38H92.6004C92.8004 62.66 93.1471 62.0333 93.6404 61.5C94.1471 60.9667 94.7604 60.56 95.4804 60.28C96.2004 59.9867 96.9804 59.84 97.8204 59.84C99.0471 59.84 100.007 60.1133 100.7 60.66C101.407 61.2067 101.76 61.9933 101.76 63.02C101.76 63.1533 101.754 63.3 101.74 63.46C101.727 63.6067 101.707 63.7533 101.68 63.9L100.6 70H98.3204L98.4204 68.46C98.0337 68.9667 97.5471 69.3933 96.9604 69.74C96.3871 70.0733 95.6937 70.24 94.8804 70.24ZM95.8204 68.24C96.5537 68.24 97.1604 68 97.6404 67.52C98.1337 67.04 98.4937 66.4467 98.7204 65.74H96.5604C95.8937 65.74 95.3671 65.8733 94.9804 66.14C94.5937 66.4067 94.4004 66.7733 94.4004 67.24C94.4004 67.5733 94.5271 67.8267 94.7804 68C95.0471 68.16 95.3937 68.24 95.8204 68.24ZM107.891 70L109.631 60.08H111.891L111.831 61.72C112.244 61.1467 112.764 60.6933 113.391 60.36C114.017 60.0133 114.717 59.84 115.491 59.84C116.517 59.84 117.311 60.1267 117.871 60.7C118.444 61.26 118.731 62.0733 118.731 63.14C118.731 63.5133 118.691 63.9333 118.611 64.4L117.611 70H115.051L116.011 64.64C116.024 64.48 116.037 64.3333 116.051 64.2C116.077 64.0533 116.091 63.92 116.091 63.8C116.091 62.6 115.497 62 114.311 62C113.604 62 112.977 62.2533 112.431 62.76C111.884 63.2533 111.531 63.9333 111.371 64.8L110.451 70H107.891ZM123.233 70.24C122.113 70.24 121.293 69.9867 120.773 69.48C120.253 68.96 119.993 68.34 119.993 67.62C119.993 66.5533 120.44 65.7067 121.333 65.08C122.226 64.4533 123.42 64.14 124.913 64.14H127.433L127.473 63.9C127.486 63.82 127.493 63.74 127.493 63.66C127.506 63.5667 127.513 63.4867 127.513 63.42C127.513 62.9133 127.353 62.54 127.033 62.3C126.713 62.0467 126.306 61.92 125.813 61.92C125.293 61.92 124.813 62.0467 124.373 62.3C123.946 62.54 123.64 62.9 123.453 63.38H120.953C121.153 62.66 121.5 62.0333 121.993 61.5C122.5 60.9667 123.113 60.56 123.833 60.28C124.553 59.9867 125.333 59.84 126.173 59.84C127.4 59.84 128.36 60.1133 129.053 60.66C129.76 61.2067 130.113 61.9933 130.113 63.02C130.113 63.1533 130.106 63.3 130.093 63.46C130.08 63.6067 130.06 63.7533 130.033 63.9L128.953 70H126.673L126.773 68.46C126.386 68.9667 125.9 69.3933 125.313 69.74C124.74 70.0733 124.046 70.24 123.233 70.24ZM124.173 68.24C124.906 68.24 125.513 68 125.993 67.52C126.486 67.04 126.846 66.4467 127.073 65.74H124.913C124.246 65.74 123.72 65.8733 123.333 66.14C122.946 66.4067 122.753 66.7733 122.753 67.24C122.753 67.5733 122.88 67.8267 123.133 68C123.4 68.16 123.746 68.24 124.173 68.24ZM122.813 58.98C123.093 58.1133 123.473 57.48 123.953 57.08C124.433 56.68 124.973 56.48 125.573 56.48C125.96 56.48 126.266 56.56 126.493 56.72C126.733 56.8667 126.953 57.02 127.153 57.18C127.353 57.3267 127.593 57.4 127.873 57.4C128.1 57.4 128.306 57.3267 128.493 57.18C128.68 57.0333 128.813 56.8067 128.893 56.5H130.273C130.006 57.3533 129.626 57.98 129.133 58.38C128.64 58.78 128.093 58.98 127.493 58.98C127.106 58.98 126.793 58.9067 126.553 58.76C126.313 58.6133 126.093 58.4667 125.893 58.32C125.693 58.16 125.46 58.08 125.193 58.08C124.713 58.08 124.373 58.38 124.173 58.98H122.813ZM136.072 70.24C135.205 70.24 134.445 70.0467 133.792 69.66C133.139 69.2733 132.625 68.7533 132.252 68.1C131.892 67.4333 131.712 66.6733 131.712 65.82C131.712 64.98 131.859 64.2 132.152 63.48C132.459 62.7467 132.879 62.1067 133.412 61.56C133.959 61.0133 134.592 60.5933 135.312 60.3C136.032 59.9933 136.805 59.84 137.632 59.84C138.512 59.84 139.279 60.0267 139.932 60.4C140.599 60.7733 141.119 61.2867 141.492 61.94C141.865 62.5933 142.052 63.3533 142.052 64.22C142.052 65.0733 141.899 65.8667 141.592 66.6C141.285 67.32 140.859 67.9533 140.312 68.5C139.779 69.0467 139.145 69.4733 138.412 69.78C137.692 70.0867 136.912 70.24 136.072 70.24ZM136.412 68.02C136.985 68.02 137.499 67.86 137.952 67.54C138.405 67.22 138.765 66.7867 139.032 66.24C139.299 65.68 139.432 65.0533 139.432 64.36C139.432 63.6267 139.225 63.06 138.812 62.66C138.412 62.26 137.925 62.06 137.352 62.06C136.792 62.06 136.279 62.22 135.812 62.54C135.359 62.86 134.999 63.3 134.732 63.86C134.465 64.4067 134.332 65.0267 134.332 65.72C134.332 66.4533 134.532 67.02 134.932 67.42C135.345 67.82 135.839 68.02 136.412 68.02ZM152.987 70.24C151.667 70.24 150.613 69.86 149.827 69.1C149.053 68.34 148.667 67.3133 148.667 66.02C148.667 65.18 148.813 64.3867 149.107 63.64C149.4 62.8933 149.82 62.24 150.367 61.68C150.913 61.1067 151.56 60.66 152.307 60.34C153.067 60.0067 153.9 59.84 154.807 59.84C155.687 59.84 156.44 60.0133 157.067 60.36C157.693 60.6933 158.173 61.16 158.507 61.76C158.853 62.3467 159.027 63.02 159.027 63.78C159.027 64.1 158.993 64.4333 158.927 64.78C158.873 65.1133 158.807 65.4067 158.727 65.66H151.187C151.187 65.7667 151.187 65.88 151.187 66C151.187 66.6667 151.387 67.1933 151.787 67.58C152.187 67.9533 152.707 68.14 153.347 68.14C153.853 68.14 154.3 68.0267 154.687 67.8C155.087 67.56 155.413 67.2533 155.667 66.88H158.267C157.96 67.52 157.54 68.0933 157.007 68.6C156.487 69.1067 155.88 69.5067 155.187 69.8C154.507 70.0933 153.773 70.24 152.987 70.24ZM154.467 61.92C153.853 61.92 153.273 62.1 152.727 62.46C152.18 62.8067 151.78 63.34 151.527 64.06H156.467C156.48 63.9533 156.487 63.88 156.487 63.84C156.5 63.2533 156.32 62.7867 155.947 62.44C155.573 62.0933 155.08 61.92 154.467 61.92ZM159.976 70L161.716 60.08H163.976L163.916 61.72C164.329 61.1467 164.849 60.6933 165.476 60.36C166.102 60.0133 166.802 59.84 167.576 59.84C168.602 59.84 169.396 60.1267 169.956 60.7C170.529 61.26 170.816 62.0733 170.816 63.14C170.816 63.5133 170.776 63.9333 170.696 64.4L169.696 70H167.136L168.096 64.64C168.109 64.48 168.122 64.3333 168.136 64.2C168.162 64.0533 168.176 63.92 168.176 63.8C168.176 62.6 167.582 62 166.396 62C165.689 62 165.062 62.2533 164.516 62.76C163.969 63.2533 163.616 63.9333 163.456 64.8L162.536 70H159.976ZM176.778 70.24C175.898 70.24 175.132 70.0667 174.478 69.72C173.825 69.36 173.318 68.86 172.958 68.22C172.612 67.58 172.438 66.8333 172.438 65.98C172.438 65.1267 172.592 64.3267 172.898 63.58C173.205 62.8333 173.638 62.18 174.198 61.62C174.758 61.06 175.412 60.6267 176.158 60.32C176.905 60 177.718 59.84 178.598 59.84C179.878 59.84 180.898 60.18 181.658 60.86C182.432 61.54 182.818 62.48 182.818 63.68H180.118C180.118 63.1467 179.938 62.74 179.578 62.46C179.218 62.1667 178.765 62.02 178.218 62.02C177.645 62.02 177.118 62.1867 176.638 62.52C176.158 62.84 175.778 63.28 175.498 63.84C175.218 64.4 175.078 65.0333 175.078 65.74C175.078 66.4467 175.272 67.0133 175.658 67.44C176.045 67.8533 176.545 68.06 177.158 68.06C177.705 68.06 178.205 67.92 178.658 67.64C179.125 67.3467 179.458 66.9333 179.658 66.4H182.338C182.058 67.1733 181.645 67.8467 181.098 68.42C180.552 68.9933 179.905 69.44 179.158 69.76C178.425 70.08 177.632 70.24 176.778 70.24ZM188.606 70.24C187.74 70.24 186.98 70.0467 186.326 69.66C185.673 69.2733 185.16 68.7533 184.786 68.1C184.426 67.4333 184.246 66.6733 184.246 65.82C184.246 64.98 184.393 64.2 184.686 63.48C184.993 62.7467 185.413 62.1067 185.946 61.56C186.493 61.0133 187.126 60.5933 187.846 60.3C188.566 59.9933 189.34 59.84 190.166 59.84C191.046 59.84 191.813 60.0267 192.466 60.4C193.133 60.7733 193.653 61.2867 194.026 61.94C194.4 62.5933 194.586 63.3533 194.586 64.22C194.586 65.0733 194.433 65.8667 194.126 66.6C193.82 67.32 193.393 67.9533 192.846 68.5C192.313 69.0467 191.68 69.4733 190.946 69.78C190.226 70.0867 189.446 70.24 188.606 70.24ZM188.946 68.02C189.52 68.02 190.033 67.86 190.486 67.54C190.94 67.22 191.3 66.7867 191.566 66.24C191.833 65.68 191.966 65.0533 191.966 64.36C191.966 63.6267 191.76 63.06 191.346 62.66C190.946 62.26 190.46 62.06 189.886 62.06C189.326 62.06 188.813 62.22 188.346 62.54C187.893 62.86 187.533 63.3 187.266 63.86C187 64.4067 186.866 65.0267 186.866 65.72C186.866 66.4533 187.066 67.02 187.466 67.42C187.88 67.82 188.373 68.02 188.946 68.02ZM195.77 70L197.51 60.08H199.77L199.71 61.72C200.123 61.1467 200.643 60.6933 201.27 60.36C201.896 60.0133 202.596 59.84 203.37 59.84C204.396 59.84 205.19 60.1267 205.75 60.7C206.323 61.26 206.61 62.0733 206.61 63.14C206.61 63.5133 206.57 63.9333 206.49 64.4L205.49 70H202.93L203.89 64.64C203.903 64.48 203.916 64.3333 203.93 64.2C203.956 64.0533 203.97 63.92 203.97 63.8C203.97 62.6 203.376 62 202.19 62C201.483 62 200.856 62.2533 200.31 62.76C199.763 63.2533 199.41 63.9333 199.25 64.8L198.33 70H195.77ZM212.032 70C211.126 70 210.399 69.8133 209.852 69.44C209.319 69.0667 209.052 68.42 209.052 67.5C209.052 67.2067 209.086 66.88 209.152 66.52L209.912 62.22H208.312L208.692 60.08H210.292L211.052 57.42H213.332L212.852 60.08H215.552L215.152 62.22H212.492L211.712 66.54C211.686 66.6733 211.672 66.8067 211.672 66.94C211.672 67.26 211.759 67.4867 211.932 67.62C212.119 67.7533 212.419 67.82 212.832 67.82H214.192L213.792 70H212.032ZM215.869 70L217.609 60.08H219.909L219.829 61.88C220.296 61.2667 220.869 60.7733 221.549 60.4C222.243 60.0267 223.009 59.84 223.849 59.84L223.369 62.54H222.669C221.816 62.54 221.083 62.74 220.469 63.14C219.856 63.5267 219.456 64.2467 219.269 65.3L218.429 70H215.869ZM227.091 70.24C225.971 70.24 225.151 69.9867 224.631 69.48C224.111 68.96 223.851 68.34 223.851 67.62C223.851 66.5533 224.298 65.7067 225.191 65.08C226.084 64.4533 227.278 64.14 228.771 64.14H231.291L231.331 63.9C231.344 63.82 231.351 63.74 231.351 63.66C231.364 63.5667 231.371 63.4867 231.371 63.42C231.371 62.9133 231.211 62.54 230.891 62.3C230.571 62.0467 230.164 61.92 229.671 61.92C229.151 61.92 228.671 62.0467 228.231 62.3C227.804 62.54 227.498 62.9 227.311 63.38H224.811C225.011 62.66 225.358 62.0333 225.851 61.5C226.358 60.9667 226.971 60.56 227.691 60.28C228.411 59.9867 229.191 59.84 230.031 59.84C231.258 59.84 232.218 60.1133 232.911 60.66C233.618 61.2067 233.971 61.9933 233.971 63.02C233.971 63.1533 233.964 63.3 233.951 63.46C233.938 63.6067 233.918 63.7533 233.891 63.9L232.811 70H230.531L230.631 68.46C230.244 68.9667 229.758 69.3933 229.171 69.74C228.598 70.0733 227.904 70.24 227.091 70.24ZM228.031 68.24C228.764 68.24 229.371 68 229.851 67.52C230.344 67.04 230.704 66.4467 230.931 65.74H228.771C228.104 65.74 227.578 65.8733 227.191 66.14C226.804 66.4067 226.611 66.7733 226.611 67.24C226.611 67.5733 226.738 67.8267 226.991 68C227.258 68.16 227.604 68.24 228.031 68.24ZM239.53 70.24C238.703 70.24 237.996 70.0467 237.41 69.66C236.823 69.2733 236.37 68.7467 236.05 68.08C235.73 67.4133 235.57 66.6667 235.57 65.84C235.57 64.7067 235.816 63.6867 236.31 62.78C236.816 61.8733 237.49 61.16 238.33 60.64C239.183 60.1067 240.13 59.84 241.17 59.84C241.996 59.84 242.663 59.9933 243.17 60.3C243.676 60.5933 244.056 60.9733 244.31 61.44L245.33 55.6H247.89L245.35 70H243.07L243.03 68.58C242.656 69.02 242.183 69.4067 241.61 69.74C241.05 70.0733 240.356 70.24 239.53 70.24ZM240.51 68C241.136 68 241.69 67.84 242.17 67.52C242.663 67.1867 243.05 66.7467 243.33 66.2C243.623 65.6533 243.77 65.0533 243.77 64.4C243.77 63.7067 243.563 63.1467 243.15 62.72C242.736 62.2933 242.17 62.08 241.45 62.08C240.823 62.08 240.263 62.2333 239.77 62.54C239.29 62.8467 238.91 63.26 238.63 63.78C238.35 64.3 238.21 64.8867 238.21 65.54C238.21 66.2333 238.41 66.82 238.81 67.3C239.223 67.7667 239.79 68 240.51 68ZM251.136 70.24C250.016 70.24 249.196 69.9867 248.676 69.48C248.156 68.96 247.896 68.34 247.896 67.62C247.896 66.5533 248.343 65.7067 249.236 65.08C250.129 64.4533 251.323 64.14 252.816 64.14H255.336L255.376 63.9C255.389 63.82 255.396 63.74 255.396 63.66C255.409 63.5667 255.416 63.4867 255.416 63.42C255.416 62.9133 255.256 62.54 254.936 62.3C254.616 62.0467 254.209 61.92 253.716 61.92C253.196 61.92 252.716 62.0467 252.276 62.3C251.849 62.54 251.543 62.9 251.356 63.38H248.856C249.056 62.66 249.403 62.0333 249.896 61.5C250.403 60.9667 251.016 60.56 251.736 60.28C252.456 59.9867 253.236 59.84 254.076 59.84C255.303 59.84 256.263 60.1133 256.956 60.66C257.663 61.2067 258.016 61.9933 258.016 63.02C258.016 63.1533 258.009 63.3 257.996 63.46C257.983 63.6067 257.963 63.7533 257.936 63.9L256.856 70H254.576L254.676 68.46C254.289 68.9667 253.803 69.3933 253.216 69.74C252.643 70.0733 251.949 70.24 251.136 70.24ZM252.076 68.24C252.809 68.24 253.416 68 253.896 67.52C254.389 67.04 254.749 66.4467 254.976 65.74H252.816C252.149 65.74 251.623 65.8733 251.236 66.14C250.849 66.4067 250.656 66.7733 250.656 67.24C250.656 67.5733 250.783 67.8267 251.036 68C251.303 68.16 251.649 68.24 252.076 68.24ZM260.335 65.58L261.735 56H264.475L262.495 65.58H260.335ZM261.075 70.14C260.608 70.14 260.221 69.9933 259.915 69.7C259.621 69.4067 259.475 69.0533 259.475 68.64C259.475 68.2133 259.621 67.8533 259.915 67.56C260.221 67.2667 260.608 67.12 261.075 67.12C261.541 67.12 261.921 67.2667 262.215 67.56C262.508 67.8533 262.655 68.2133 262.655 68.64C262.655 69.0533 262.508 69.4067 262.215 69.7C261.921 69.9933 261.541 70.14 261.075 70.14Z" fill="white"/>
<rect width="16.6767" height="6.48913" transform="matrix(0.715662 0.698447 -0.699105 0.715019 142.204 28.5691)" fill="white"/>
<rect width="16.9444" height="6.16153" transform="matrix(0.707107 -0.707107 -0.707107 -0.707107 149.581 44.7134)" fill="white"/>
<circle cx="136.704" cy="18.2112" r="12.0088" stroke="white" stroke-width="6.40468"/>
<path fill-rule="evenodd" clip-rule="evenodd" d="M153.762 18.2111C153.762 13.3475 157.705 9.40468 162.569 9.40468C165.739 9.40468 168.518 11.0795 170.068 13.5925H177.066C175.111 7.44977 169.36 3 162.569 3C154.168 3 147.358 9.81025 147.358 18.2111C147.358 26.612 154.168 33.4223 162.569 33.4223C169.359 33.4223 175.111 28.9726 177.066 22.8301H170.068C168.517 25.3429 165.739 27.0176 162.569 27.0176C157.705 27.0176 153.762 23.0748 153.762 18.2111Z" fill="white"/>
<circle cx="136.704" cy="18.2113" r="4.61876" fill="white"/>
<circle cx="162.569" cy="18.2113" r="4.61876" fill="white"/>
<path d="M172.73 11.7451L179.196 4.3551H167.188L172.73 11.7451Z" fill="white"/>
<path d="M127.964 11.7451L121 4.3551H133.933L127.964 11.7451Z" fill="white"/>
</svg>
