<svg width="27" height="30" viewBox="0 0 27 30" fill="none" xmlns="http://www.w3.org/2000/svg">
<path d="M21.1667 9.66667C21.1667 7.63334 20.3589 5.68329 18.9212 4.24551C17.4834 2.80774 15.5333 2 13.5 2C11.4667 2 9.51663 2.80774 8.07885 4.24551C6.64107 5.68329 5.83333 7.63334 5.83333 9.66667C5.83333 18.6111 2 21.1667 2 21.1667H25C25 21.1667 21.1667 18.6111 21.1667 9.66667Z" stroke="#184E77" stroke-width="3" stroke-linecap="round" stroke-linejoin="round"/>
<path d="M15.7106 26.2778C15.4859 26.6651 15.1635 26.9866 14.7755 27.21C14.3876 27.4335 13.9477 27.5511 13.5 27.5511C13.0523 27.5511 12.6124 27.4335 12.2245 27.21C11.8365 26.9866 11.5141 26.6651 11.2894 26.2778" stroke="#184E77" stroke-width="3" stroke-linecap="round" stroke-linejoin="round"/>
</svg>
