<svg width="28" height="28" viewBox="0 0 28 28" fill="none" xmlns="http://www.w3.org/2000/svg">
<path d="M27.825 11.655C27.895 12.0517 27.9417 12.4423 27.965 12.8268C27.9883 13.2123 28 13.6033 28 14C28 15.9367 27.6323 17.7567 26.8968 19.46C26.1623 21.1633 25.165 22.645 23.905 23.905C22.645 25.165 21.1633 26.1623 19.46 26.8968C17.7567 27.6323 15.9367 28 14 28C12.0633 28 10.2433 27.6323 8.54 26.8968C6.83667 26.1623 5.355 25.165 4.095 23.905C2.835 22.645 1.83773 21.1633 1.1032 19.46C0.367733 17.7567 0 15.9367 0 14C0 12.0633 0.367733 10.2433 1.1032 8.54C1.83773 6.83667 2.835 5.355 4.095 4.095C5.355 2.835 6.83667 1.83727 8.54 1.1018C10.2433 0.367267 12.0633 0 14 0C15.19 0 16.3394 0.1456 17.4482 0.4368C18.5561 0.728933 19.6 1.13167 20.58 1.645C20.93 1.83167 21.1461 2.11727 21.2282 2.5018C21.3094 2.88727 21.2217 3.24333 20.965 3.57C20.7317 3.87333 20.4283 4.07167 20.055 4.165C19.6817 4.25833 19.3317 4.21167 19.005 4.025C18.2583 3.62833 17.4594 3.325 16.6082 3.115C15.7561 2.905 14.8867 2.8 14 2.8C10.8967 2.8 8.2544 3.8906 6.0732 6.0718C3.89107 8.25393 2.8 10.8967 2.8 14C2.8 17.1033 3.89107 19.7461 6.0732 21.9282C8.2544 24.1094 10.8967 25.2 14 25.2C17.1033 25.2 19.7461 24.1094 21.9282 21.9282C24.1094 19.7461 25.2 17.1033 25.2 14C25.2 13.6967 25.1883 13.3989 25.165 13.1068C25.1417 12.8156 25.1067 12.5183 25.06 12.215C25.0133 11.8883 25.0661 11.585 25.2182 11.305C25.3694 11.025 25.585 10.8033 25.865 10.64C26.2617 10.4067 26.6644 10.4006 27.0732 10.6218C27.4811 10.8439 27.7317 11.1883 27.825 11.655ZM11.06 19.46L7.035 15.435C6.77833 15.1783 6.65607 14.8573 6.6682 14.4718C6.6794 14.0873 6.81333 13.7667 7.07 13.51C7.32667 13.2533 7.65333 13.125 8.05 13.125C8.44667 13.125 8.77333 13.2533 9.03 13.51L12.04 16.52L25.095 3.43C25.3517 3.17333 25.6727 3.0506 26.0582 3.0618C26.4427 3.07393 26.7633 3.20833 27.02 3.465C27.2767 3.72167 27.405 4.04833 27.405 4.445C27.405 4.84167 27.2767 5.16833 27.02 5.425L13.02 19.46C12.7633 19.7167 12.4367 19.845 12.04 19.845C11.6433 19.845 11.3167 19.7167 11.06 19.46V19.46Z" fill="#184E77"/>
</svg>
