<svg width="24" height="28" viewBox="0 0 24 28" fill="none" xmlns="http://www.w3.org/2000/svg">
<path fill-rule="evenodd" clip-rule="evenodd" d="M12 15.3333C15.1947 15.3333 18.1 16.2586 20.2373 17.5613C21.304 18.2146 22.216 18.9813 22.8747 19.8146C23.5227 20.636 24 21.6173 24 22.6666C24 23.7933 23.452 24.6813 22.6627 25.3146C21.916 25.9146 20.9307 26.312 19.884 26.5893C17.78 27.1453 14.972 27.3333 12 27.3333C9.028 27.3333 6.22 27.1466 4.116 26.5893C3.06933 26.312 2.084 25.9146 1.33733 25.3146C0.546666 24.68 0 23.7933 0 22.6666C0 21.6173 0.477333 20.636 1.12533 19.8146C1.784 18.9813 2.69467 18.2146 3.76267 17.5613C5.9 16.2586 8.80667 15.3333 12 15.3333ZM12 18C9.30267 18 6.876 18.7866 5.152 19.8386C4.28933 20.364 3.63867 20.9346 3.21867 21.468C2.78667 22.0146 2.66667 22.428 2.66667 22.6666C2.66667 22.8293 2.716 23.0013 3.00667 23.2346C3.33867 23.5013 3.916 23.7773 4.79867 24.0106C6.556 24.4773 9.08133 24.6666 12 24.6666C14.92 24.6666 17.444 24.476 19.2 24.0106C20.084 23.7773 20.6613 23.5013 20.9933 23.2346C21.284 23.0013 21.3333 22.8293 21.3333 22.6666C21.3333 22.4266 21.2133 22.0146 20.7827 21.468C20.3613 20.9346 19.7107 20.364 18.848 19.8386C17.124 18.7853 14.6973 18 12 18ZM12 0.666626C13.7681 0.666626 15.4638 1.369 16.714 2.61925C17.9643 3.86949 18.6667 5.56518 18.6667 7.33329C18.6667 9.1014 17.9643 10.7971 16.714 12.0473C15.4638 13.2976 13.7681 14 12 14C10.2319 14 8.5362 13.2976 7.28596 12.0473C6.03571 10.7971 5.33333 9.1014 5.33333 7.33329C5.33333 5.56518 6.03571 3.86949 7.28596 2.61925C8.5362 1.369 10.2319 0.666626 12 0.666626V0.666626ZM12 3.33329C11.4747 3.33329 10.9546 3.43676 10.4693 3.63777C9.98396 3.83879 9.54301 4.13343 9.17157 4.50487C8.80014 4.8763 8.5055 5.31726 8.30448 5.80256C8.10346 6.28786 8 6.808 8 7.33329C8 7.85858 8.10346 8.37872 8.30448 8.86403C8.5055 9.34933 8.80014 9.79029 9.17157 10.1617C9.54301 10.5332 9.98396 10.8278 10.4693 11.0288C10.9546 11.2298 11.4747 11.3333 12 11.3333C13.0609 11.3333 14.0783 10.9119 14.8284 10.1617C15.5786 9.41157 16 8.39416 16 7.33329C16 6.27243 15.5786 5.25501 14.8284 4.50487C14.0783 3.75472 13.0609 3.33329 12 3.33329Z" fill="#184E77"/>
</svg>
