<svg width="102" height="102" viewBox="0 0 102 102" fill="none" xmlns="http://www.w3.org/2000/svg">
<path d="M51 87.72C38.25 87.72 26.979 81.192 20.4 71.4C20.553 61.2 40.8 55.59 51 55.59C61.2 55.59 81.447 61.2 81.6 71.4C78.2283 76.4205 73.6739 80.5349 68.3378 83.3808C63.0016 86.2267 57.0476 87.7169 51 87.72M51 15.3C55.0578 15.3 58.9494 16.912 61.8187 19.7813C64.688 22.6506 66.3 26.5422 66.3 30.6C66.3 34.6578 64.688 38.5494 61.8187 41.4187C58.9494 44.288 55.0578 45.9 51 45.9C46.9422 45.9 43.0506 44.288 40.1813 41.4187C37.312 38.5494 35.7 34.6578 35.7 30.6C35.7 26.5422 37.312 22.6506 40.1813 19.7813C43.0506 16.912 46.9422 15.3 51 15.3M51 0C44.3026 0 37.6707 1.31915 31.4831 3.88214C25.2955 6.44513 19.6733 10.2018 14.9376 14.9376C5.3732 24.5019 0 37.474 0 51C0 64.526 5.3732 77.4981 14.9376 87.0624C19.6733 91.7982 25.2955 95.5549 31.4831 98.1179C37.6707 100.681 44.3026 102 51 102C64.526 102 77.4981 96.6268 87.0624 87.0624C96.6268 77.4981 102 64.526 102 51C102 22.797 79.05 0 51 0Z" fill="#ACA9A9"/>
</svg>
